<?xml version="1.0" encoding="UTF-8"?>
<svg version="1.1" xmlns="http://www.w3.org/2000/svg" width="374" height="358">
    <path
        d="M0 0 C1.13050781 -0.02835938 2.26101562 -0.05671875 3.42578125 -0.0859375 C7.44778432 0.48244138 9.05832158 1.27138336 11.6875 4.375 C11.95743619 7.18605966 11.95059799 9.25407017 11.625 12 C11.56062744 12.70769531 11.49625488 13.41539063 11.42993164 14.14453125 C10.88944462 19.63313011 9.96462726 25.01020647 8.6875 30.375 C9.29553467 30.41238281 9.90356934 30.44976562 10.5300293 30.48828125 C16.88663379 30.98602516 22.49013671 32.28534364 28.5 34.375 C29.83611328 34.83096558 29.83611328 34.83096558 31.19921875 35.29614258 C37.95780803 37.65490444 44.59415367 40.27708491 51.1875 43.0625 C52.06510986 43.43052734 52.94271973 43.79855469 53.84692383 44.17773438 C58.27779495 46.10137452 62.17959604 47.95757769 65.6875 51.375 C66.0175 52.365 66.3475 53.355 66.6875 54.375 C69.03636552 55.53149742 69.03636552 55.53149742 71.9375 56.5 C87.54188979 62.72328918 101.35046879 75.26461895 111.6875 88.375 C112.63496094 89.56609375 112.63496094 89.56609375 113.6015625 90.78125 C131.66360143 114.49203469 137.64787884 143.18246192 142.86132812 171.88671875 C143.545301 175.63774849 144.27114225 179.37918445 145.01235962 183.11927795 C151.04191804 213.54949037 151.04191804 213.54949037 149.6875 226.375 C149.61885742 227.02597656 149.55021484 227.67695313 149.47949219 228.34765625 C147.25278236 247.37090563 138.18330751 263.97287737 125.1171875 277.76953125 C122.62046794 280.38454576 122.62046794 280.38454576 120.2578125 283.38671875 C105.16119406 300.93825842 81.93472814 306.66669715 59.6875 308.375 C55.60747382 308.51106677 51.53123907 308.5151079 47.44921875 308.5078125 C46.27133286 308.50922241 45.09344696 308.51063232 43.87986755 308.51208496 C40.04488114 308.51421914 36.20997808 308.50791846 32.375 308.5 C31.061828 308.4984491 29.74865601 308.49689819 28.39569092 308.49530029 C-108.17306209 308.32311637 -108.17306209 308.32311637 -144.3125 279.375 C-144.94285156 278.89675781 -145.57320312 278.41851562 -146.22265625 277.92578125 C-162.60357058 264.90314093 -172.16341631 244.95098124 -175.6875 224.6875 C-181.18499307 175.55011344 -164.16989344 116.98231007 -134.25 77.75 C-123.06609393 64.73600021 -109.9542528 57.27876873 -94.00390625 51.69921875 C-88.13734959 49.59470795 -83.25496915 47.65849853 -78.5625 43.5 C-60.7308764 28.81513351 -34.57306871 26.59645679 -12.3125 27.375 C-12.27511719 26.49199219 -12.23773438 25.60898437 -12.19921875 24.69921875 C-10.8529333 0.12290978 -10.8529333 0.12290978 0 0 Z "
        fill="#E8524A" transform="translate(205.3125,26.625)" />
    <path
        d="M0 0 C1.13050781 -0.02835938 2.26101562 -0.05671875 3.42578125 -0.0859375 C7.44778432 0.48244138 9.05832158 1.27138336 11.6875 4.375 C11.95743619 7.18605966 11.95059799 9.25407017 11.625 12 C11.56062744 12.70769531 11.49625488 13.41539063 11.42993164 14.14453125 C10.88944462 19.63313011 9.96462726 25.01020647 8.6875 30.375 C9.29553467 30.41238281 9.90356934 30.44976562 10.5300293 30.48828125 C16.88663379 30.98602516 22.49013671 32.28534364 28.5 34.375 C29.39074219 34.67897705 30.28148437 34.9829541 31.19921875 35.29614258 C37.95780803 37.65490444 44.59415367 40.27708491 51.1875 43.0625 C52.06510986 43.43052734 52.94271973 43.79855469 53.84692383 44.17773438 C64.31940024 48.72430671 64.31940024 48.72430671 66.6875 53.3125 C66.6875 56.30222533 65.37545055 57.97291652 63.6875 60.375 C63.3575 60.705 63.0275 61.035 62.6875 61.375 C57.88120059 60.98739521 53.2780312 60.30078498 48.5625 59.3125 C41.61433677 57.97821545 34.73537812 58.20379648 27.6875 58.375 C28.24179688 59.37660156 28.79609375 60.37820312 29.3671875 61.41015625 C30.09932328 62.75240517 30.83107362 64.09486438 31.5625 65.4375 C31.92730469 66.09427734 32.29210937 66.75105469 32.66796875 67.42773438 C35.82395716 73.25196753 37.96830397 78.9054416 38 85.625 C38.01675781 86.45515625 38.03351563 87.2853125 38.05078125 88.140625 C37.6875 90.375 37.6875 90.375 36.48046875 92.171875 C34.6875 93.375 34.6875 93.375 32.3359375 93.90625 C28.50304758 93.13741072 26.72694854 90.74245117 24.3125 87.875 C23.82918213 87.32618164 23.34586426 86.77736328 22.84790039 86.21191406 C20.78640525 83.86280849 18.77273626 81.47707519 16.76953125 79.078125 C12.29842226 73.76801932 7.30937333 69.45131008 1.6875 65.375 C0.57761719 64.51841797 0.57761719 64.51841797 -0.5546875 63.64453125 C-5.30990594 61.45551426 -9.76680775 61.54528528 -14.73046875 63.16308594 C-17.31455191 64.2651214 -19.80896658 65.47570008 -22.3125 66.75 C-23.2195166 67.1931958 -24.1265332 67.6363916 -25.06103516 68.09301758 C-31.85130845 71.46914383 -38.40300947 75.21269584 -44.71875 79.41357422 C-48.36820211 81.72680234 -49.7991582 82.40475164 -54.2890625 82.14453125 C-55.28679687 81.89058594 -56.28453125 81.63664062 -57.3125 81.375 C-58.25 78.875 -58.25 78.875 -58.3125 75.375 C-56.35862994 72.34313266 -53.87008445 69.90324314 -51.3125 67.375 C-50.68988281 66.73949219 -50.06726563 66.10398437 -49.42578125 65.44921875 C-47.73816917 63.73964209 -46.02900077 62.05549027 -44.3125 60.375 C-42.9779862 59.04284818 -41.64438169 57.7097834 -40.3125 56.375 C-55.66438267 55.64006945 -68.43546582 58.34410314 -82.54296875 64.51953125 C-85.62628746 65.47192448 -87.26608167 65.34357705 -90.3125 64.375 C-91.3125 63.375 -91.3125 63.375 -91.6875 60.75 C-90.96768554 54.27166982 -86.04220444 49.57918172 -81.3125 45.375 C-61.7502721 29.78296596 -36.554739 26.84089926 -12.3125 27.375 C-12.27511719 26.49199219 -12.23773438 25.60898437 -12.19921875 24.69921875 C-10.8529333 0.12290978 -10.8529333 0.12290978 0 0 Z "
        fill="#588C42" transform="translate(205.3125,26.625)" />
    <path
        d="M0 0 C6.00245382 3.3153088 10.34628895 8.46967124 12.46484375 15.015625 C14.31419598 24.49164467 13.53190183 33.89541566 8.9375 42.4375 C5.51525853 47.42585197 1.82483658 51.5535523 -4.0625 53.4375 C-9.46892799 54.43261103 -13.20425104 53.73940025 -17.875 50.8125 C-23.01892071 47.0038479 -26.09537718 42.5117119 -28.0625 36.4375 C-29.34230447 26.47898323 -29.10673797 16.6358929 -23.91796875 7.8359375 C-17.91136995 0.07161821 -9.58830073 -4.29820378 0 0 Z "
        fill="#FCFAFA" transform="translate(240.0625,144.5625)" />
    <path
        d="M0 0 C5.70620228 4.11377374 9.59015471 9.15835505 11.6875 15.9375 C12.15858646 18.84546668 12.25945379 21.68203401 12.25 24.625 C12.24758301 25.41156982 12.24516602 26.19813965 12.24267578 27.00854492 C11.99100574 35.05951902 9.49986599 41.6091747 4.12890625 47.70703125 C-0.6244619 51.99123579 -5.61723599 53.55585792 -11.90625 53.3671875 C-16.57209996 52.53400001 -19.972697 50.23199559 -23.3125 46.9375 C-29.17190452 37.93912877 -30.68856405 28.47486004 -29.3125 17.9375 C-26.86949892 10.09372154 -22.96190444 4.66880701 -16.3125 -0.0625 C-11.53581234 -2.45084383 -4.92259935 -1.57894696 0 0 Z "
        fill="#FDFBFB" transform="translate(149.3125,144.0625)" />
    <path
        d="M0 0 C2.20376914 2.64452296 1.90017014 5.03111038 1.78125 8.35546875 C1.08861399 12.17803542 -0.82227812 14.07448491 -3.6328125 16.640625 C-11.87826277 21.6222512 -22.26452091 22.05202207 -31.55859375 19.9921875 C-37.31039887 17.94981664 -41.5963569 15.03092216 -44.6328125 9.640625 C-45.3828125 6.640625 -45.3828125 6.640625 -44.6328125 3.640625 C-41.59921602 -1.17804697 -38.02262655 -4.37944331 -32.6328125 -6.359375 C-20.72852244 -8.83007671 -9.53406928 -7.93745481 0 0 Z "
        fill="#030101" transform="translate(207.6328125,205.359375)" />
    <path
        d="M0 0 C4.2060812 1.85850099 5.96055978 3.93264182 8 8 C8.78262537 13.23865453 9.14416565 19.01942466 6.1875 23.625 C3.15764053 26.91456171 1.62438907 27.92950446 -2.875 28.4375 C-6.35364369 28.35437065 -6.95454794 28.03557118 -9.875 25.75 C-13.62097651 20.90226569 -14.44563678 17.55088401 -14.3203125 11.47265625 C-13.72919533 6.90952001 -11.26966721 4.26966721 -8.125 1.125 C-5.19702233 -0.42510583 -3.27404289 -0.40090321 0 0 Z "
        fill="#040404" transform="translate(233,157)" />
    <path
        d="M0 0 C4.82049444 3.85639555 6.68885348 7.2515391 7.375 13.3125 C6.80084782 18.95832978 4.95313306 23.25801646 0.6875 27.0625 C-3.02353948 28.35704866 -5.23011598 28.07710972 -9 27 C-12.94323617 23.74254403 -14.71676894 21.45227906 -15.30859375 16.328125 C-15.69941864 6.9957004 -15.69941864 6.9957004 -12.125 2.8125 C-8.07338881 -1.20975168 -5.63914265 -1.33810165 0 0 Z "
        fill="#070707" transform="translate(145,157)" />
</svg>