<?xml version="1.0" encoding="UTF-8"?>
<svg version="1.1" xmlns="http://www.w3.org/2000/svg" width="511" height="382">
    <path
        d="M0 0 C1.97274868 0.39804314 3.94545983 0.79627229 5.9181366 1.19467163 C7.99253101 1.60942782 10.06701111 2.02375566 12.14157104 2.43768311 C17.66458541 3.54152533 23.18599694 4.65318381 28.70697784 5.76714706 C32.13149687 6.45766656 35.5564005 7.14624609 38.98143005 7.83422852 C73.02251719 14.67363836 107.05706848 21.54173405 140.93766785 29.14389038 C141.86061646 29.3508252 142.78356506 29.55776001 143.73448181 29.77096558 C199.03828022 42.20504514 199.03828022 42.20504514 206.93766785 48.14389038 C207.85801697 50.98374939 207.85801697 50.98374939 208.28044128 54.50546265 C208.36444592 55.15231522 208.44845057 55.79916779 208.5350008 56.46562195 C208.81049018 58.62843377 209.05351246 60.793672 209.29704285 62.96029663 C209.48730785 64.50180847 209.67969339 66.04305986 209.87405396 67.58406067 C210.28690389 70.89009927 210.68584181 74.19741027 211.07398987 77.50643921 C211.68872474 82.74335007 212.33503706 87.97604319 212.98771667 93.20834351 C213.65633886 98.57775867 214.32371681 103.9472932 214.98095703 109.31811523 C216.97396887 125.59510935 219.11950276 141.8489894 221.34492874 158.09569931 C221.62489203 160.14187455 221.90356173 162.18822228 222.18190002 164.23461914 C224.85275611 183.85409274 227.72612385 203.43621556 230.90715027 222.97982788 C231.04569427 223.83945129 231.18423828 224.69907471 231.32698059 225.58474731 C231.58039083 227.15303453 231.83773259 228.72069466 232.10011292 230.2875061 C232.74526147 234.28242635 233.06088247 238.09801356 232.93766785 242.14389038 C242.85334763 233.94235737 249.98598807 225.22283342 256.00163269 213.88412476 C256.88091207 212.24940816 257.80819341 210.64077032 258.7384491 209.03451538 C262.27276099 202.65757077 263.47565829 197.59403395 263.7462616 190.33139038 C264.11567684 184.17949564 265.19347169 178.34978552 269.06266785 173.45639038 C275.17950025 170.66392341 281.66215459 172.09578489 288.0900116 173.21810913 C289.93766785 174.14389038 289.93766785 174.14389038 291.21891785 176.25326538 C291.95248223 179.20346998 291.90417823 181.64869384 291.65544128 184.66293335 C290.99104908 193.40658543 292.87730112 197.64295943 298.67985535 204.43685913 C306.44790346 213.75045314 308.62392712 229.80615262 308.1603241 241.69857788 C306.06668752 264.6918498 295.96286832 287.62914638 279.31266785 303.95639038 C267.77688645 313.2616203 251.911813 317.1120359 237.93766785 321.14389038 C237.30240173 321.33386597 236.66713562 321.52384155 236.01261902 321.71957397 C226.59466576 323.645495 216.31238892 321.78043853 206.93766785 320.39389038 C205.76977722 320.23662476 204.6018866 320.07935913 203.39860535 319.91732788 C191.88101448 318.25736467 180.72087247 316.20206632 171.93766785 308.14389038 C171.41173035 307.67338257 170.88579285 307.20287476 170.34391785 306.71810913 C168.93766785 305.39389038 168.93766785 305.39389038 166.93766785 303.14389038 C166.93766785 302.48389038 166.93766785 301.82389038 166.93766785 301.14389038 C165.38885925 301.57701538 165.38885925 301.57701538 163.8087616 302.01889038 C104.28343145 317.57853482 3.09359159 285.45803806 -51.06233215 259.14389038 C-56.79402381 255.77807373 -56.79402381 255.77807373 -58.43733215 251.89389038 C-58.74670715 250.53264038 -58.74670715 250.53264038 -59.06233215 249.14389038 C-59.36526184 249.67498413 -59.66819153 250.20607788 -59.9803009 250.75326538 C-63.91778829 257.39247489 -68.33600042 262.1068161 -76.06233215 264.14389038 C-85.66013227 265.50026152 -92.46126469 262.59469098 -100.06233215 256.89389038 C-100.72233215 256.31639038 -101.38233215 255.73889038 -102.06233215 255.14389038 C-105.20575208 253.57218042 -108.62004667 253.91213255 -112.06233215 254.14389038 C-113.05233215 254.47389038 -114.04233215 254.80389038 -115.06233215 255.14389038 C-120.00119576 255.66242856 -123.91588049 255.69588563 -128.43733215 253.51889038 C-134.35857582 248.16157469 -136.68379044 242.21259078 -137.26887512 234.37826538 C-137.36722683 231.25547138 -137.39059599 228.1431879 -137.37483215 225.01889038 C-137.36963562 223.3570874 -137.36963562 223.3570874 -137.36433411 221.66171265 C-137.21617955 210.48300088 -135.40931865 200.49385822 -131.06233215 190.14389038 C-132.29983215 190.37076538 -133.53733215 190.59764038 -134.81233215 190.83139038 C-142.35971203 191.63961374 -149.99695991 189.92444721 -156.31233215 185.64389038 C-165.12790122 178.20289029 -172.51064411 166.78439392 -173.5037384 155.14389038 C-173.85971088 147.4976373 -173.30616753 140.70733764 -169.06233215 134.14389038 C-168.62662903 133.46068726 -168.1909259 132.77748413 -167.74201965 132.07357788 C-163.15760197 125.48504317 -157.22398343 118.7407352 -149.06233215 117.14389038 C-145.68733215 117.01889038 -145.68733215 117.01889038 -143.06233215 117.14389038 C-143.42326965 116.51740601 -143.78420715 115.89092163 -144.15608215 115.24545288 C-144.62014465 114.42818726 -145.08420715 113.61092163 -145.56233215 112.76889038 C-146.02639465 111.95678101 -146.49045715 111.14467163 -146.96858215 110.30795288 C-148.06233215 108.14389038 -148.06233215 108.14389038 -148.06233215 106.14389038 C-143.60733215 105.64889038 -143.60733215 105.64889038 -139.06233215 105.14389038 C-137.74233215 109.10389038 -136.42233215 113.06389038 -135.06233215 117.14389038 C-132.58733215 116.15389038 -132.58733215 116.15389038 -130.06233215 115.14389038 C-130.5212384 114.71721069 -130.98014465 114.29053101 -131.45295715 113.85092163 C-138.93078009 106.23171128 -141.21583301 97.41181614 -141.56233215 86.89389038 C-141.12978638 73.3454406 -137.75993655 59.45750652 -130.06233215 48.14389038 C-125.90402921 44.34485258 -121.40298085 42.27637993 -115.74983215 41.95639038 C-112.13197956 42.14034899 -109.41874456 42.83407091 -106.06233215 44.14389038 C-106.74682434 43.13068726 -106.74682434 43.13068726 -107.44514465 42.09701538 C-108.30752747 40.75896851 -108.30752747 40.75896851 -109.18733215 39.39389038 C-109.76741028 38.51217163 -110.3474884 37.63045288 -110.94514465 36.72201538 C-112.06233215 34.14389038 -112.06233215 34.14389038 -111.24201965 31.81576538 C-110.85272278 31.26404663 -110.4634259 30.71232788 -110.06233215 30.14389038 C-108.08233215 30.14389038 -106.10233215 30.14389038 -104.06233215 30.14389038 C-102.74233215 32.45389038 -101.42233215 34.76389038 -100.06233215 37.14389038 C-99.50545715 36.50451538 -98.94858215 35.86514038 -98.37483215 35.20639038 C-95.82505276 32.93226282 -94.44530628 32.32194165 -91.06233215 32.14389038 C-90.40233215 32.80389038 -89.74233215 33.46389038 -89.06233215 34.14389038 C-89.40427833 40.41290364 -89.40427833 40.41290364 -91.6131134 42.86654663 C-92.33047668 43.49883179 -92.33047668 43.49883179 -93.06233215 44.14389038 C-92.23991028 44.23025757 -91.4174884 44.31662476 -90.57014465 44.40560913 C-81.34728094 45.56645456 -73.15965698 47.44106372 -66.62483215 54.45639038 C-57.9057638 65.78625321 -58.85433163 82.83146879 -60.29670715 96.3387146 C-61.48456675 104.04612597 -63.62307388 109.9761525 -69.43733215 115.33139038 C-74.57949328 118.53185004 -81.20245148 119.08429552 -87.06233215 120.14389038 C-86.55444153 120.60795288 -86.0465509 121.07201538 -85.52326965 121.55014038 C-76.52538655 130.58172342 -72.53450197 141.79461163 -72.37483215 154.39389038 C-72.47329881 162.05213487 -74.35567703 168.39248283 -78.06233215 175.14389038 C-75.75233215 175.47389038 -73.44233215 175.80389038 -71.06233215 176.14389038 C-71.33722407 180.17563844 -71.59724791 181.71283669 -74.62483215 184.51889038 C-75.83139465 185.32326538 -75.83139465 185.32326538 -77.06233215 186.14389038 C-76.43326965 186.30244507 -75.80420715 186.46099976 -75.15608215 186.62435913 C-66.42843744 189.00343096 -60.67178275 191.99100678 -55.06233215 199.14389038 C-54.93784698 198.26583237 -54.81336182 197.38777435 -54.68510437 196.48310852 C-44.07736542 121.68761405 -44.07736542 121.68761405 -40.43733215 97.95639038 C-40.25771942 96.77470779 -40.25771942 96.77470779 -40.07447815 95.56915283 C-39.74891447 93.43326471 -39.4185505 91.29819561 -39.08576965 89.16342163 C-38.82159241 87.46343018 -38.82159241 87.46343018 -38.55207825 85.72909546 C-38.06233215 83.14389038 -38.06233215 83.14389038 -37.06233215 81.14389038 C-38.01108215 81.04076538 -38.95983215 80.93764038 -39.93733215 80.83139038 C-44.75090025 80.14091955 -49.54492202 78.95258524 -54.06233215 77.14389038 C-56.12841366 73.01172737 -54.51943248 67.7099382 -53.27268982 63.4385376 C-52.23811781 60.42258021 -51.14222948 57.43669205 -50.0193634 54.45248413 C-49.61328354 53.3489711 -49.20720367 52.24545807 -48.78881836 51.10850525 C-47.49363923 47.59587483 -46.18447063 44.08865196 -44.87483215 40.58139038 C-44.01388322 38.25295537 -43.15384887 35.92418198 -42.29475403 33.59506226 C-40.64316223 29.12181764 -38.9814349 24.65256156 -37.31086731 20.18637085 C-35.92008264 16.46497951 -34.55116389 12.73768585 -33.21614075 8.99594116 C-32.94452621 8.2436171 -32.67291168 7.49129303 -32.39306641 6.71617126 C-31.69653106 4.7830149 -31.00924147 2.8465338 -30.3228302 0.90975952 C-25.97564075 -8.62913439 -8.18103593 -1.63582959 0 0 Z M-89.06233215 187.14389038 C-89.39233215 187.80389038 -89.72233215 188.46389038 -90.06233215 189.14389038 C-85.60733215 188.64889038 -85.60733215 188.64889038 -81.06233215 188.14389038 C-81.06233215 187.81389038 -81.06233215 187.48389038 -81.06233215 187.14389038 C-83.70233215 187.14389038 -86.34233215 187.14389038 -89.06233215 187.14389038 Z "
        fill="#FECD8E" transform="translate(192.0623321533203,52.856109619140625)" />
    <path
        d="M0 0 C1.98 0 3.96 0 6 0 C7.32 2.31 8.64 4.62 10 7 C10.556875 6.360625 11.11375 5.72125 11.6875 5.0625 C14.23727939 2.78837244 15.61702587 2.17805127 19 2 C19.99 2.99 19.99 2.99 21 4 C20.65805382 10.26901326 20.65805382 10.26901326 18.44921875 12.72265625 C17.97097656 13.14417969 17.49273437 13.56570312 17 14 C18.23363281 14.12955078 18.23363281 14.12955078 19.4921875 14.26171875 C28.71505122 15.42256418 36.90267517 17.29717334 43.4375 24.3125 C52.15656835 35.64236283 51.20800053 52.68757841 49.765625 66.19482422 C48.5777654 73.90223559 46.43925827 79.83226212 40.625 85.1875 C35.48283888 88.38795966 28.85988067 88.94040514 23 90 C23.50789063 90.4640625 24.01578125 90.928125 24.5390625 91.40625 C33.5369456 100.43783304 37.52783019 111.65072125 37.6875 124.25 C37.58903334 131.90824449 35.70665513 138.24859245 32 145 C34.31 145.33 36.62 145.66 39 146 C38.72510809 150.03174806 38.46508424 151.56894631 35.4375 154.375 C34.2309375 155.179375 34.2309375 155.179375 33 156 C33.6290625 156.15855469 34.258125 156.31710938 34.90625 156.48046875 C42.86461149 158.64984139 50.5911576 161.59314477 55 169 C56.42121357 175.19649117 55.56830389 180.70695982 54.625 186.9375 C53.62338799 193.91113366 52.81428461 200.77201595 52.5625 207.8125 C52.1201242 215.9171586 50.83592903 222.75883858 44.6875 228.4375 C38.7306814 232.88307498 33.25277584 234.62559218 25.84765625 234.421875 C18.94763069 233.39964899 13.17101614 229.52463912 8 225 C4.85658007 223.42829004 1.44228549 223.76824217 -2 224 C-2.99 224.33 -3.98 224.66 -5 225 C-9.9388636 225.51853818 -13.85354834 225.55199525 -18.375 223.375 C-24.29624366 218.01768431 -26.62145829 212.0687004 -27.20654297 204.234375 C-27.30489467 201.111581 -27.32826383 197.99929752 -27.3125 194.875 C-27.30730347 193.21319702 -27.30730347 193.21319702 -27.30200195 191.51782227 C-27.15384739 180.3391105 -25.34698649 170.34996784 -21 160 C-22.2375 160.226875 -23.475 160.45375 -24.75 160.6875 C-32.29737988 161.49572336 -39.93462775 159.78055683 -46.25 155.5 C-55.06556907 148.05899991 -62.44831196 136.64050354 -63.44140625 125 C-63.79737873 117.35374692 -63.24383538 110.56344726 -59 104 C-58.56429687 103.31679687 -58.12859375 102.63359375 -57.6796875 101.9296875 C-53.09526981 95.34115279 -47.16165128 88.59684482 -39 87 C-35.625 86.875 -35.625 86.875 -33 87 C-33.3609375 86.37351562 -33.721875 85.74703125 -34.09375 85.1015625 C-34.5578125 84.28429687 -35.021875 83.46703125 -35.5 82.625 C-35.9640625 81.81289062 -36.428125 81.00078125 -36.90625 80.1640625 C-38 78 -38 78 -38 76 C-33.545 75.505 -33.545 75.505 -29 75 C-27.68 78.96 -26.36 82.92 -25 87 C-22.525 86.01 -22.525 86.01 -20 85 C-20.45890625 84.57332031 -20.9178125 84.14664063 -21.390625 83.70703125 C-28.86844794 76.0878209 -31.15350085 67.26792576 -31.5 56.75 C-31.06745423 43.20155022 -27.6976044 29.31361614 -20 18 C-15.84169705 14.2009622 -11.34064869 12.13248955 -5.6875 11.8125 C-2.06964741 11.99645861 0.6435876 12.69018053 4 14 C3.31550781 12.98679687 3.31550781 12.98679687 2.6171875 11.953125 C2.04226562 11.06109375 1.46734375 10.1690625 0.875 9.25 C0.29492188 8.36828125 -0.28515625 7.4865625 -0.8828125 6.578125 C-2 4 -2 4 -1.1796875 1.671875 C-0.79039063 1.12015625 -0.40109375 0.5684375 0 0 Z M21 157 C20.67 157.66 20.34 158.32 20 159 C24.455 158.505 24.455 158.505 29 158 C29 157.67 29 157.34 29 157 C26.36 157 23.72 157 21 157 Z "
        fill="#E73D3D" transform="translate(82,83)" />
    <path
        d="M0 0 C6.11708551 5.34459013 14.93114843 13.64910187 16.3125 22 C16.33980333 24.42840088 16.30264782 26.85779403 16.2265625 29.28515625 C16.20532318 29.98265488 16.18408386 30.6801535 16.16220093 31.39878845 C16.11606766 32.86889299 16.06715048 34.33891247 16.015625 35.80883789 C15.93765838 38.05793109 15.87053784 40.3071636 15.8046875 42.55664062 C15.75845936 43.98700022 15.71160564 45.41733976 15.6640625 46.84765625 C15.62104004 48.14711182 15.57801758 49.44656738 15.53369141 50.78540039 C15.3125 54 15.3125 54 14.3125 57 C12.31640625 57.84375 12.31640625 57.84375 9.875 58.5 C5.85805147 59.56007689 5.85805147 59.56007689 3.3125 63 C2.2201773 69.43962333 3.70858642 74.65151679 7.3125 80 C8.240625 80.928125 9.16875 81.85625 10.125 82.8125 C12.93427858 86.90602022 12.72299434 89.12483931 12.015625 93.92578125 C9.94264888 102.9892935 7.18837788 111.51424228 -0.6875 117 C-18.71735514 127.85918314 -33.25815781 126.46770693 -52.875 122.125 C-54.24386353 121.82704529 -54.24386353 121.82704529 -55.64038086 121.52307129 C-74.69114477 117.37552158 -93.5968462 112.67047501 -112.42266846 107.60275269 C-114.83859772 106.95978749 -117.2595328 106.33820548 -119.68115234 105.71704102 C-121.31621385 105.28712707 -122.95114617 104.85672142 -124.5859375 104.42578125 C-125.34471191 104.23550354 -126.10348633 104.04522583 -126.88525391 103.84918213 C-130.92627584 102.7660916 -133.71408847 101.79823036 -136.3125 98.4375 C-138.99098396 92.035563 -138.8315876 85.29126608 -136.578125 78.80859375 C-130.3858266 65.50846896 -121.45960059 60.93042043 -108.6875 55 C-107.6975 54.505 -107.6975 54.505 -106.6875 54 C-106.07692747 51.31287633 -105.55570099 48.64622632 -105.0625 45.9375 C-101.37290812 27.78673757 -91.59460699 12.17028502 -76.6875 1 C-68.58973654 -4.22818982 -60.18986194 -8.15364492 -50.6875 -10 C-49.594375 -10.226875 -48.50125 -10.45375 -47.375 -10.6875 C-30.66342352 -12.1037353 -13.7163772 -10.54361858 0 0 Z "
        fill="#BDD795" transform="translate(330.6875,229)" />
    <path
        d="M0 0 C1.84765625 0.92578125 1.84765625 0.92578125 3.12890625 3.03515625 C3.86247064 5.98536085 3.81416663 8.43058471 3.56542969 11.44482422 C2.90103749 20.1884763 4.78728952 24.4248503 10.58984375 31.21875 C18.35789186 40.53234401 20.53391552 56.58804349 20.0703125 68.48046875 C17.97667592 91.47374067 7.87285672 114.41103725 -8.77734375 130.73828125 C-20.31312515 140.04351117 -36.17819859 143.89392677 -50.15234375 147.92578125 C-50.78760986 148.11575684 -51.42287598 148.30573242 -52.07739258 148.50146484 C-61.49534584 150.42738587 -71.77762268 148.5623294 -81.15234375 147.17578125 C-82.32023437 147.01851562 -83.488125 146.86125 -84.69140625 146.69921875 C-96.20899712 145.03925554 -107.36913913 142.98395719 -116.15234375 134.92578125 C-116.67828125 134.45527344 -117.20421875 133.98476563 -117.74609375 133.5 C-119.15234375 132.17578125 -119.15234375 132.17578125 -121.15234375 129.92578125 C-121.15234375 129.26578125 -121.15234375 128.60578125 -121.15234375 127.92578125 C-122.70115234 128.35890625 -122.70115234 128.35890625 -124.28125 128.80078125 C-141.75724605 133.35903083 -159.42905081 133.06165615 -177.15234375 129.92578125 C-174.08773886 128.19258568 -170.94441686 127.23506263 -167.56762695 126.27758789 C-157.63619681 123.4352594 -149.07255835 119.89067764 -143.15234375 110.92578125 C-139.99278493 104.24251107 -137.09135205 96.39693113 -138.15234375 88.92578125 C-139.6608007 86.28598158 -141.31405332 84.21166516 -143.390625 81.99609375 C-146.97506426 77.78378154 -147.65048479 73.4578332 -147.54296875 68.08203125 C-146.90280072 64.54830372 -144.94401312 63.00330264 -142.15234375 60.92578125 C-136.86106508 59.16202169 -133.19640742 59.04714674 -128.08984375 61.2421875 C-121.91300192 64.49814068 -116.13475292 68.13696301 -110.56640625 72.34765625 C-105.38862005 75.73248736 -99.63482921 77.52483837 -93.71484375 79.17578125 C-92.47863281 79.5315625 -91.24242187 79.88734375 -89.96875 80.25390625 C-78.95952931 82.19206997 -66.68028644 77.20058491 -57.15234375 71.92578125 C-46.8013805 64.44412101 -39.01563167 54.15391204 -33.15234375 42.92578125 C-32.41572197 41.6227584 -31.67735959 40.3207184 -30.9375 39.01953125 C-26.8311864 31.58179798 -24.4562366 25.61797831 -24.2734375 16.97265625 C-24.03108421 10.8747348 -22.8489117 5.07144072 -19.02734375 0.23828125 C-12.91051134 -2.55418572 -6.42785701 -1.12232424 0 0 Z "
        fill="#FED82E" transform="translate(480.15234375,226.07421875)" />
    <path
        d="M0 0 C0.78375 0.04125 1.5675 0.0825 2.375 0.125 C4.05398333 5.47025124 4.96970068 10.64818643 5.63671875 16.20385742 C5.74794256 17.09182164 5.85916637 17.97978586 5.9737606 18.89465809 C6.21478932 20.82432683 6.45329474 22.75431207 6.68955612 24.68457031 C7.07020308 27.79338116 7.45764608 30.90128045 7.84683228 34.0090332 C8.40405503 38.46247283 8.9587865 42.91621166 9.51153564 47.37020874 C13.69700097 81.06268858 17.98592063 114.73224353 23 148.3125 C23.10248047 149.00013302 23.20496094 149.68776604 23.31054688 150.39623642 C25.58541419 165.6516175 27.94045337 180.89429644 30.375 196.125 C25.4658261 200.30634122 20.62113446 202.25090963 14.625 204.4375 C13.67367187 204.80939453 12.72234375 205.18128906 11.7421875 205.56445312 C5.51730193 207.8540172 0.85521661 208.61318928 -5.625 207.125 C-6.62563477 206.90082397 -6.62563477 206.90082397 -7.64648438 206.67211914 C-9.6231243 206.17820404 -11.55687244 205.61217503 -13.5 205 C-14.18980957 204.78335693 -14.87961914 204.56671387 -15.59033203 204.34350586 C-21.95061265 202.22365913 -27.15239902 198.96854766 -32.625 195.125 C-34.34267247 194.0235329 -36.07170745 192.93955144 -37.8125 191.875 C-38.54855469 191.41609375 -39.28460938 190.9571875 -40.04296875 190.484375 C-43.46897532 188.68066806 -46.98098865 187.43330397 -50.625 186.125 C-50.57899658 185.10140381 -50.53299316 184.07780762 -50.4855957 183.02319336 C-50.3181889 179.20132926 -50.17242301 175.37888548 -50.03295898 171.5559082 C-49.96979051 169.90593461 -49.90086687 168.25617036 -49.82592773 166.60668945 C-49.71881116 164.22640106 -49.63287558 161.846111 -49.55078125 159.46484375 C-49.51342361 158.73539047 -49.47606598 158.00593719 -49.43757629 157.25437927 C-49.16765603 147.91994436 -53.88596298 141.82896916 -59.89453125 134.99609375 C-68.82865231 125.60184628 -81.52539012 119.48032396 -94.625 119.125 C-95.63691406 119.07472656 -96.64882813 119.02445312 -97.69140625 118.97265625 C-117.48180827 118.41985172 -135.13738085 124.47372386 -149.625 138.125 C-159.61676668 147.63898989 -165.61353151 160.1919618 -168.3203125 173.55859375 C-168.56523437 174.73550781 -168.81015625 175.91242188 -169.0625 177.125 C-169.26746094 178.218125 -169.47242188 179.31125 -169.68359375 180.4375 C-170.625 183.125 -170.625 183.125 -172.72265625 184.5 C-173.35042969 184.70625 -173.97820312 184.9125 -174.625 185.125 C-175.28924783 165.91101658 -165.12828544 147.13555644 -152.42138672 133.34936523 C-143.934889 124.55987804 -133.54550575 118.14253388 -121.625 115.125 C-121.0467749 114.95371582 -120.4685498 114.78243164 -119.87280273 114.60595703 C-114.96422515 113.5556803 -109.81097033 113.94024189 -104.8125 113.9375 C-103.64912109 113.92525391 -102.48574219 113.91300781 -101.28710938 113.90039062 C-95.34551209 113.89024561 -90.22028648 114.05841974 -84.625 116.125 C-84.233125 115.2175 -83.84125 114.31 -83.4375 113.375 C-81.38316949 109.69137288 -80.3247333 108.16362855 -76.625 106.125 C-72.63031995 105.50441655 -68.66312478 105.25380781 -64.625 105.125 C-64.625 106.115 -64.625 107.105 -64.625 108.125 C-65.615 108.125 -66.605 108.125 -67.625 108.125 C-67.58375 109.07375 -67.5425 110.0225 -67.5 111 C-67.625 114.125 -67.625 114.125 -69.625 116.125 C-72.25 115.75 -72.25 115.75 -74.625 115.125 C-74.625 113.475 -74.625 111.825 -74.625 110.125 C-76.67336882 110.68862302 -76.67336882 110.68862302 -78.625 112.125 C-79.28536795 115.1699856 -79.28536795 115.1699856 -79.625 118.125 C-78.87476563 118.4653125 -78.12453125 118.805625 -77.3515625 119.15625 C-65.17539323 124.92229489 -55.72419072 131.92661857 -49.625 144.125 C-49.295 122.345 -48.965 100.565 -48.625 78.125 C-55.885 77.465 -63.145 76.805 -70.625 76.125 C-76.93497244 75.19981083 -83.21777957 74.26404228 -89.50268555 73.203125 C-92.18994724 72.74958697 -94.87888901 72.3074202 -97.56835938 71.8671875 C-109.9602242 69.82244766 -122.29738695 67.52484431 -134.625 65.125 C-134.295 62.485 -133.965 59.845 -133.625 57.125 C-124.65665294 58.70235937 -115.73168822 60.48061032 -106.8125 62.3125 C-105.71323685 62.53768814 -105.71323685 62.53768814 -104.59176636 62.76742554 C-92.52223359 65.246385 -80.51460316 67.93710335 -68.53393555 70.81518555 C-61.59452272 72.47491838 -54.66139457 73.93817045 -47.625 75.125 C-47.28992432 74.54983643 -46.95484863 73.97467285 -46.60961914 73.38208008 C-20.11456597 27.91162416 -20.11456597 27.91162416 -9.6875 10.4375 C-9.19749512 9.61217773 -8.70749023 8.78685547 -8.20263672 7.93652344 C-7.75549316 7.19047852 -7.30834961 6.44443359 -6.84765625 5.67578125 C-6.46359619 5.03294189 -6.07953613 4.39010254 -5.68383789 3.7277832 C-3.93884991 1.08636147 -3.24890918 0.15470996 0 0 Z "
        fill="#F4B564" transform="translate(395.625,99.875)" />
    <path
        d="M0 0 C0.7734375 0.495 0.7734375 0.495 1.5625 1 C0.2425 2.32 -1.0775 3.64 -2.4375 5 C-1.9425 5.99 -1.9425 5.99 -1.4375 7 C-0.44169922 6.54947266 -0.44169922 6.54947266 0.57421875 6.08984375 C1.89873047 5.51943359 1.89873047 5.51943359 3.25 4.9375 C4.12011719 4.55464844 4.99023438 4.17179688 5.88671875 3.77734375 C8.92354509 2.89511245 10.56963307 3.06376983 13.5625 4 C15.4375 5.5 15.4375 5.5 16.5625 8 C16.50460593 11.05259653 16.09512279 13.99677754 15.5625 17 C18.36122437 14.47211993 20.02023019 12.79588866 20.5625 9 C21.2225 9 21.8825 9 22.5625 9 C26.28934501 13.49413663 26.93341918 16.25673526 26.5625 22 C25.97857062 24.49994766 25.31091182 26.98177372 24.5625 29.4375 C24.005625 31.29181641 24.005625 31.29181641 23.4375 33.18359375 C23.14875 34.11300781 22.86 35.04242188 22.5625 36 C23.201875 36.309375 23.84125 36.61875 24.5 36.9375 C26.5625 38 26.5625 38 27.5625 39 C27.75 42.4375 27.75 42.4375 27.5625 46 C25.5625 48 25.5625 48 23.3984375 48.1953125 C22.58632813 48.17210937 21.77421875 48.14890625 20.9375 48.125 C20.12023437 48.10695313 19.30296875 48.08890625 18.4609375 48.0703125 C17.83445312 48.04710937 17.20796875 48.02390625 16.5625 48 C16.22105957 48.65371582 15.87961914 49.30743164 15.52783203 49.98095703 C-4.15321544 87.47714363 -4.15321544 87.47714363 -18.4375 97 C-19.4275 97 -20.4175 97 -21.4375 97 C-21.4375 97.66 -21.4375 98.32 -21.4375 99 C-28.20855653 98.48370071 -34.62785289 97.44571114 -41.20703125 95.77734375 C-42.53307625 95.44169151 -42.53307625 95.44169151 -43.88591003 95.09925842 C-45.7365578 94.62551052 -47.58602797 94.14713995 -49.43432617 93.66430664 C-51.31685318 93.17837211 -53.20304355 92.70642193 -55.0925293 92.24829102 C-57.84776986 91.5800575 -60.58961426 90.8711773 -63.33203125 90.15234375 C-64.17167923 89.95615952 -65.01132721 89.75997528 -65.87641907 89.55784607 C-70.46229532 88.29881091 -72.84701337 87.05165318 -75.46289062 82.98950195 C-78.39812955 77.65413819 -78.46616477 72.94421286 -77.4375 67 C-73.84081538 56.65319953 -68.51251228 49.8850726 -58.79223633 45.0793457 C-57.3845804 44.3992753 -55.97554918 43.72204451 -54.56518555 43.04760742 C-44.44484707 38.1685143 -36.78756723 32.31153356 -30.4375 23 C-27.33629095 18.47601404 -27.33629095 18.47601404 -25.9375 16.4375 C-25.55609863 15.88054443 -25.17469727 15.32358887 -24.78173828 14.74975586 C-11.37166523 -4.66529856 -11.37166523 -4.66529856 0 0 Z "
        fill="#B779CC" transform="translate(270.4375,244)" />
    <path
        d="M0 0 C9.95202282 0.15923237 9.95202282 0.15923237 14 2.1875 C16.1535593 5.73299397 16.05265286 8.64841318 15.71777344 12.70654297 C15.05338124 21.45019505 16.93963327 25.68656905 22.7421875 32.48046875 C30.51023561 41.79406276 32.68625927 57.84976224 32.22265625 69.7421875 C30.12901967 92.73545942 20.02520047 115.672756 3.375 132 C-8.1607814 141.30522992 -24.02585484 145.15564552 -38 149.1875 C-38.63526611 149.37747559 -39.27053223 149.56745117 -39.92504883 149.76318359 C-49.34300209 151.68910462 -59.62527893 149.82404815 -69 148.4375 C-70.16789062 148.28023437 -71.33578125 148.12296875 -72.5390625 147.9609375 C-84.05665337 146.30097429 -95.21679538 144.24567594 -104 136.1875 C-104.5259375 135.71699219 -105.051875 135.24648438 -105.59375 134.76171875 C-107 133.4375 -107 133.4375 -109 131.1875 C-109 130.5275 -109 129.8675 -109 129.1875 C-110.54880859 129.620625 -110.54880859 129.620625 -112.12890625 130.0625 C-129.6049023 134.62074958 -147.27670706 134.3233749 -165 131.1875 C-161.93539511 129.45430443 -158.79207311 128.49678138 -155.4152832 127.53930664 C-145.48385306 124.69697815 -136.9202146 121.15239639 -131 112.1875 C-128.12257579 105.72838692 -126.36123511 99.10711179 -125 92.1875 C-121.05691516 95.40038395 -119.37846462 99.28375992 -117.23828125 103.76953125 C-115.81150042 106.55557962 -114.09168771 108.86340254 -112 111.1875 C-112.66 112.1775 -113.32 113.1675 -114 114.1875 C-113.34 113.5275 -112.68 112.8675 -112 112.1875 C-109.375 112.0625 -109.375 112.0625 -107 112.1875 C-107.495 113.6725 -107.495 113.6725 -108 115.1875 C-107.12408203 115.61095703 -107.12408203 115.61095703 -106.23046875 116.04296875 C-104 117.1875 -104 117.1875 -102.23828125 118.30078125 C-94.76838143 122.95242272 -86.41790786 124.91630787 -78 127.1875 C-78 129.4975 -78 131.8075 -78 134.1875 C-76.02 135.1775 -76.02 135.1775 -74 136.1875 C-74.66 135.1975 -75.32 134.2075 -76 133.1875 C-75.625 130.5 -75.625 130.5 -75 128.1875 C-71.61915982 127.02967802 -69.70336781 127.34914853 -66.375 128.5625 C-65.59898437 128.83835937 -64.82296875 129.11421875 -64.0234375 129.3984375 C-60.12210596 130.91980617 -60.12210596 130.91980617 -58.375 134.75 C-57.694375 136.4515625 -57.694375 136.4515625 -57 138.1875 C-56.34 138.1875 -55.68 138.1875 -55 138.1875 C-55.33 137.8575 -55.66 137.5275 -56 137.1875 C-56.125 134.1875 -56.125 134.1875 -56 131.1875 C-53.80119906 128.98869906 -48.18489688 129.78447012 -45.078125 129.66992188 C-40.93746407 129.46821689 -37.77485767 128.84445073 -34 127.1875 C-31.9629131 126.76873545 -29.92069505 126.37445769 -27.875 126 C-18.70372571 123.95154078 -11.21978218 119.22567457 -5 112.1875 C-3.93458984 111.09115234 -3.93458984 111.09115234 -2.84765625 109.97265625 C2.18424546 104.6797807 5.50196363 100.01862314 8 93.1875 C8.48533203 92.08728516 8.48533203 92.08728516 8.98046875 90.96484375 C11.23820915 85.78328627 12.80572164 80.52950862 14.1875 75.0625 C14.43790039 74.07721313 14.43790039 74.07721313 14.69335938 73.07202148 C16.84255336 64.21986292 17.18217139 55.6424534 17.1875 46.5625 C17.19974609 45.45648438 17.21199219 44.35046875 17.22460938 43.2109375 C17.23710702 36.27891214 16.93600092 31.09150138 13 25.1875 C12.18917969 25.34734375 11.37835938 25.5071875 10.54296875 25.671875 C6.43654819 26.26950181 2.45566812 26.40890177 -1.6875 26.4375 C-2.44611328 26.458125 -3.20472656 26.47875 -3.98632812 26.5 C-6.92928797 26.52077995 -9.39750478 26.4746178 -12.08203125 25.1953125 C-13.65295812 21.75932777 -12.68222223 18.38661999 -12 14.8125 C-11.88527344 14.05710938 -11.77054688 13.30171875 -11.65234375 12.5234375 C-10.71303666 7.30709133 -9.20047694 4.67443438 -5 1.1875 C-3.47615222 -0.33634778 -2.12094628 0.01841099 0 0 Z "
        fill="#FEDC2E" transform="translate(468,224.8125)" />
    <path
        d="M0 0 C3.5625 0.25 3.5625 0.25 6.5625 2.25 C6.418125 2.98605469 6.27375 3.72210938 6.125 4.48046875 C5.8465625 5.94419922 5.8465625 5.94419922 5.5625 7.4375 C5.2840625 8.88189453 5.2840625 8.88189453 5 10.35546875 C4.855625 11.31066406 4.71125 12.26585937 4.5625 13.25 C4.42457031 14.10335937 4.28664062 14.95671875 4.14453125 15.8359375 C4.35604777 18.5197622 4.35604777 18.5197622 7.01171875 20.49609375 C8.61466797 21.58083984 8.61466797 21.58083984 10.25 22.6875 C16.86050348 27.36230454 21.59803549 31.04419115 23.29296875 39.28125 C23.65912771 41.95580239 23.69715161 44.55696786 23.5625 47.25 C22.60150391 47.6521875 22.60150391 47.6521875 21.62109375 48.0625 C12.79394454 52.06168533 6.86072764 57.65475941 3.22265625 66.7578125 C1.55212684 73.06430816 1.28304218 79.71409942 4.5625 85.5 C5.5525 86.86125 5.5525 86.86125 6.5625 88.25 C-1.59994979 86.84543021 -9.41395667 84.59303401 -17.3125 82.125 C-17.94357666 81.92813599 -18.57465332 81.73127197 -19.22485352 81.52844238 C-27.54987248 78.92076344 -35.80865681 76.1722691 -43.9375 73 C-44.73655762 72.69562012 -45.53561523 72.39124023 -46.35888672 72.07763672 C-50.96669464 70.21015066 -54.41826741 68.36080129 -57.4375 64.25 C-59.11648781 57.44369962 -58.1660336 50.666821 -57.5 43.75 C-57.35014648 42.08710938 -57.35014648 42.08710938 -57.19726562 40.390625 C-56.951572 37.67629543 -56.69813764 34.96292839 -56.4375 32.25 C-55.7775 32.91 -55.1175 33.57 -54.4375 34.25 C-53.73625 33.51394531 -53.035 32.77789062 -52.3125 32.01953125 C-39.88170437 19.14391353 -27.7280454 13.91998335 -9.4375 13.25 C-9.17195313 12.47914063 -8.90640625 11.70828125 -8.6328125 10.9140625 C-8.10300781 9.40972656 -8.10300781 9.40972656 -7.5625 7.875 C-7.04042969 6.37839844 -7.04042969 6.37839844 -6.5078125 4.8515625 C-4.91250767 0.97392376 -4.25818848 0.30968644 0 0 Z "
        fill="#FDB981" transform="translate(191.4375,241.75)" />
    <path
        d="M0 0 C3.16115776 1.36983503 3.9927092 1.9890638 6 5 C7.47112897 10.6057203 7.18411707 16.30814355 7.1875 22.0625 C7.19974609 23.13177734 7.21199219 24.20105469 7.22460938 25.30273438 C7.24725233 37.794096 4.68798209 49.11794502 1 61 C0.51273438 62.75376953 0.51273438 62.75376953 0.015625 64.54296875 C-4.61925505 79.67350109 -16.58153585 91.91682952 -30 100 C-35.15603468 102.30596526 -40.63384095 103.46077225 -46.15234375 104.5703125 C-48.08020896 104.94302539 -48.08020896 104.94302539 -50 106 C-52.71262116 106.2322646 -55.40773126 106.41936235 -58.125 106.5625 C-58.87910156 106.60568359 -59.63320313 106.64886719 -60.41015625 106.69335938 C-62.27321888 106.7994832 -64.13658524 106.90025001 -66 107 C-66.16681109 109.91652174 -66.16681109 109.91652174 -66 113 C-65.01 113.99 -65.01 113.99 -64 115 C-65.32 115 -66.64 115 -68 115 C-69.75 113.25 -69.75 113.25 -71 111 C-71 109.68 -71 108.36 -71 107 C-71.67546875 106.86722656 -72.3509375 106.73445313 -73.046875 106.59765625 C-73.93890625 106.42105469 -74.8309375 106.24445313 -75.75 106.0625 C-77.07257813 105.80146484 -77.07257813 105.80146484 -78.421875 105.53515625 C-80.63235053 105.07631512 -82.81512068 104.56663926 -85 104 C-85.77802187 106.3015411 -85.77802187 106.3015411 -86 109 C-84.66846734 111.30504044 -84.66846734 111.30504044 -83 113 C-87.75 112.25 -87.75 112.25 -90 110 C-89.625 106.375 -89.625 106.375 -89 103 C-89.90621094 102.82984375 -90.81242187 102.6596875 -91.74609375 102.484375 C-102.20614051 100.40343448 -110.65533388 97.74675133 -119 91 C-119 90.34 -119 89.68 -119 89 C-113.61102317 89.50940577 -108.48307342 90.27921503 -103.21679688 91.51147461 C-84.7541493 95.74281047 -66.46502969 94.74960373 -48 91 C-47.18418457 90.83902832 -46.36836914 90.67805664 -45.52783203 90.51220703 C-34.91382226 88.32034348 -27.87222016 85.83782292 -21 77 C-19.7550059 75.59969989 -18.50522274 74.20363858 -17.25 72.8125 C-16.15915357 71.54810982 -15.07656649 70.27657082 -14 69 C-13.17371094 68.15308594 -12.34742188 67.30617188 -11.49609375 66.43359375 C-8.05148224 62.28384238 -7.08086035 57.39294059 -5.8125 52.25 C-5.56564453 51.3115625 -5.31878906 50.373125 -5.06445312 49.40625 C-4.34071785 46.61166684 -3.66538404 43.80898064 -3 41 C-2.79624756 40.21310791 -2.59249512 39.42621582 -2.38256836 38.61547852 C-0.56815286 30.93836775 -0.80925076 23.28129824 -0.9375 15.4375 C-0.97383075 12.72785812 -1.00191854 10.01838619 -1.02734375 7.30859375 C-1.04531006 6.12064209 -1.06327637 4.93269043 -1.08178711 3.70874023 C-1 1 -1 1 0 0 Z "
        fill="#FCE157" transform="translate(479,249)" />
    <path
        d="M0 0 C0.66 0.66 1.32 1.32 2 2 C1.73057764 4.55951238 1.26559505 6.52422934 0.0078125 8.77734375 C-1.26327602 11.58063588 -1.51742569 14.13352351 -1.875 17.1875 C-2.69245035 23.0283146 -4.23651485 27.80840411 -7 33 C-7.928125 32.95875 -8.85625 32.9175 -9.8125 32.875 C-13.15809719 32.72863661 -13.15809719 32.72863661 -16 35 C-22.33333333 35.33333333 -22.33333333 35.33333333 -25 34 C-25.12375 34.99 -25.12375 34.99 -25.25 36 C-25.92125977 38.68503908 -26.63698345 40.16904416 -28 42.5 C-29.93176871 46.15729877 -30.27494137 49.13184802 -30.4375 53.25 C-30.81478826 61.34283307 -33.51960825 68.27941237 -38 75 C-38.55774244 77.32020857 -39.05080165 79.65635641 -39.5 82 C-40.77777778 88.66666667 -40.77777778 88.66666667 -43 92 C-46.5 92.375 -46.5 92.375 -50 92 C-52.30746834 88.53879749 -52.12061679 87.822094 -51.5625 83.875 C-51.33938844 82.25450548 -51.14309325 80.62951084 -51 79 C-51.33 78.67 -51.66 78.34 -52 78 C-52.53880996 72.85137146 -51.2545582 70.28486832 -48.5 66 C-44.91303307 59.72638055 -44.68424215 55.44773563 -45.0625 48.36328125 C-44.91941933 40.66375256 -40.61309548 33.79698706 -35.4921875 28.23828125 C-33.44145873 26.53649848 -31.63951032 26.07763266 -29 26 C-29.0825 25.278125 -29.165 24.55625 -29.25 23.8125 C-28.92059581 20.10670285 -27.5227551 18.66691253 -25 16 C-22 14 -22 14 -18.4375 14.3125 C-15 15 -15 15 -13 16 C-12.90203125 15.34773438 -12.8040625 14.69546875 -12.703125 14.0234375 C-11.73758205 8.38000545 -10.65050294 4.44905046 -7 0 C-4.29393021 -1.35303489 -2.8671629 -0.7884698 0 0 Z "
        fill="#9CB369" transform="translate(337,256)" />
    <path
        d="M0 0 C4.70588235 0.70588235 4.70588235 0.70588235 6 2 C6.81032822 6.63532395 7.28319487 11.32514577 7.8125 16 C7.89826294 16.75641785 7.98402588 17.51283569 8.0723877 18.29217529 C12.41629124 57.45846939 15.19685357 97.60050109 14 137 C11.625 137.625 11.625 137.625 9 138 C6.2617729 135.2617729 6.74666832 133.76572044 6.7265625 129.92578125 C6.70912343 128.57298981 6.69101574 127.22020689 6.67236328 125.86743164 C6.66529358 125.13106476 6.65822388 124.39469788 6.65093994 123.63601685 C6.44596498 105.27580638 5.40693861 86.96231445 4.25463104 68.64223862 C4.12659157 66.58803446 4.0021098 64.53364494 3.87872314 62.47915649 C3.03961844 48.56676916 2.09172136 34.7381754 -0.01925659 20.95240784 C-1.03494228 14.30893354 -1.63008981 7.72499701 -1 1 C-0.67 0.67 -0.34 0.34 0 0 Z "
        fill="#E9A650" transform="translate(373,152)" />
    <path
        d="M0 0 C0 0.99 0 1.98 0 3 C-0.99 3 -1.98 3 -3 3 C-2.95875 3.94875 -2.9175 4.8975 -2.875 5.875 C-3 9 -3 9 -5 11 C-7.625 10.625 -7.625 10.625 -10 10 C-10 8.35 -10 6.7 -10 5 C-12.04836882 5.56362302 -12.04836882 5.56362302 -14 7 C-14.66036795 10.0449856 -14.66036795 10.0449856 -15 13 C-14.24976563 13.3403125 -13.49953125 13.680625 -12.7265625 14.03125 C-1.31026051 19.4374585 10.0986225 26.74655625 15 39 C14.67 39.99 14.34 40.98 14 42 C13.33355469 41.0821875 12.66710937 40.164375 11.98046875 39.21875 C2.08268899 25.9013082 -9.01831008 16.87838877 -26 14.1875 C-27.33153318 14.09420787 -28.6656934 14.03619277 -30 14 C-31.01191406 13.94972656 -32.02382813 13.89945313 -33.06640625 13.84765625 C-52.85680827 13.29485172 -70.51238085 19.34872386 -85 33 C-94.99176668 42.51398989 -100.98853151 55.0669618 -103.6953125 68.43359375 C-103.94023437 69.61050781 -104.18515625 70.78742188 -104.4375 72 C-104.64246094 73.093125 -104.84742188 74.18625 -105.05859375 75.3125 C-106 78 -106 78 -108.09765625 79.375 C-109.03931641 79.684375 -109.03931641 79.684375 -110 80 C-110.66424783 60.78601658 -100.50328544 42.01055644 -87.79638672 28.22436523 C-79.309889 19.43487804 -68.92050575 13.01753388 -57 10 C-56.4217749 9.82871582 -55.8435498 9.65743164 -55.24780273 9.48095703 C-50.33922515 8.4306803 -45.18597033 8.81524189 -40.1875 8.8125 C-39.02412109 8.80025391 -37.86074219 8.78800781 -36.66210938 8.77539062 C-30.72051209 8.76524561 -25.59528648 8.93341974 -20 11 C-19.608125 10.0925 -19.21625 9.185 -18.8125 8.25 C-16.84950577 4.73014827 -15.42033351 3.09884102 -12 1 C-7.96730317 0.13585068 -4.1164168 -0.1247399 0 0 Z "
        fill="#AD8A67" transform="translate(331,205)" />
    <path
        d="M0 0 C3.94308484 3.21288395 5.62153538 7.09625992 7.76171875 11.58203125 C9.18849958 14.36807962 10.90831229 16.67590254 13 19 C12.484375 19.350625 11.96875 19.70125 11.4375 20.0625 C9.66339907 22.04143877 9.66339907 22.04143877 10.0625 25.3125 C11.06798872 29.26742229 12.63207883 31.71546419 15 35 C15 35.66 15 36.32 15 37 C13.29274992 37.48301203 11.58414026 37.96121958 9.875 38.4375 C8.92367187 38.70433594 7.97234375 38.97117187 6.9921875 39.24609375 C0.29023572 40.93470562 -6.05695475 41.19199378 -12.9375 41.1875 C-13.95207275 41.18814453 -14.96664551 41.18878906 -16.01196289 41.18945312 C-24.15498628 41.13268484 -31.98253824 40.41857143 -40 39 C-36.93539511 37.26680443 -33.79207311 36.30928138 -30.4152832 35.35180664 C-20.48385306 32.50947815 -11.9202146 28.96489639 -6 20 C-3.12257579 13.54088692 -1.36123511 6.91961179 0 0 Z "
        fill="#F4B664" transform="translate(343,317)" />
    <path
        d="M0 0 C1 1 1 1 1.375 3.8125 C1.189375 5.3903125 1.189375 5.3903125 1 7 C0.175 7.556875 -0.65 8.11375 -1.5 8.6875 C-4.2558065 10.71173346 -4.2558065 10.71173346 -4.19140625 13.4453125 C-4.10434802 15.38169852 -4.01309788 17.31789995 -3.91796875 19.25390625 C-4.04321325 23.44661507 -5.72295849 25.51746592 -8 29 C-8.83195246 31.31758187 -9.41314275 33.60366622 -10 36 C-11.98 36.495 -11.98 36.495 -14 37 C-14.1546875 35.39125 -14.1546875 35.39125 -14.3125 33.75 C-14.98602236 30.07624166 -15.65874989 28.74842404 -18 26 C-18 25.34 -18 24.68 -18 24 C-18.66 24 -19.32 24 -20 24 C-20.0825 24.94875 -20.165 25.8975 -20.25 26.875 C-20.4975 27.90625 -20.745 28.9375 -21 30 C-23.046875 31.1953125 -23.046875 31.1953125 -25 32 C-24.96519531 31.39671875 -24.93039062 30.7934375 -24.89453125 30.171875 C-24.6485551 25.07474512 -24.6485551 25.07474512 -26.5 20.4375 C-26.995 19.963125 -27.49 19.48875 -28 19 C-33.45479185 19.56820748 -37.91059256 20.94637945 -43 23 C-43 21.68 -43 20.36 -43 19 C-42.01 18.01 -41.02 17.02 -40 16 C-44.29 15.01 -48.58 14.02 -53 13 C-52.67 11.68 -52.34 10.36 -52 9 C-43.74580981 6.24860327 -36.60797546 8.37407127 -29 12 C-28.81050781 11.07960937 -28.81050781 11.07960937 -28.6171875 10.140625 C-27.77504449 7.21977454 -26.3204881 5.9109902 -24 4 C-23.01 4 -22.02 4 -21 4 C-20.25 5.6875 -20.25 5.6875 -20 8 C-21.9375 10.625 -21.9375 10.625 -24 13 C-24 13.66 -24 14.32 -24 15 C-23.071875 15.45375 -22.14375 15.9075 -21.1875 16.375 C-18 18 -18 18 -15 20 C-15.05800781 19.20335937 -15.11601562 18.40671875 -15.17578125 17.5859375 C-15.59028368 7.85105194 -15.59028368 7.85105194 -12.75 4.4375 C-11.8425 3.633125 -10.935 2.82875 -10 2 C-9.0409375 1.0409375 -9.0409375 1.0409375 -8.0625 0.0625 C-5.10488429 -1.46112022 -3.13929055 -0.83714415 0 0 Z "
        fill="#7EA54E" transform="translate(311,229)" />
    <path
        d="M0 0 C9.95202282 0.15923237 9.95202282 0.15923237 14 2.1875 C16.22407547 6.0690075 16.35730814 9.83944771 16.4375 14.25 C16.47746094 15.45785156 16.51742188 16.66570312 16.55859375 17.91015625 C16 21.1875 16 21.1875 13.72265625 23.55859375 C8.76893772 26.52229623 4.06627759 26.39949981 -1.5625 26.4375 C-2.33013672 26.458125 -3.09777344 26.47875 -3.88867188 26.5 C-6.86274718 26.52074333 -9.37431517 26.4845541 -12.08984375 25.1953125 C-13.6484385 21.75703911 -12.6819056 18.38496121 -12 14.8125 C-11.88527344 14.05710938 -11.77054687 13.30171875 -11.65234375 12.5234375 C-10.71303666 7.30709133 -9.20047694 4.67443438 -5 1.1875 C-3.47615222 -0.33634778 -2.12094628 0.01841099 0 0 Z "
        fill="#C4B216" transform="translate(468,224.8125)" />
    <path
        d="M0 0 C0.66 0.66 1.32 1.32 2 2 C1.73057764 4.55951238 1.26559505 6.52422934 0.0078125 8.77734375 C-1.26327602 11.58063588 -1.51742569 14.13352351 -1.875 17.1875 C-2.69245035 23.0283146 -4.23651485 27.80840411 -7 33 C-7.928125 32.95875 -8.85625 32.9175 -9.8125 32.875 C-13.15809719 32.72863661 -13.15809719 32.72863661 -16 35 C-19.375 35.4375 -19.375 35.4375 -23 35 C-25.63016161 32.8272578 -27.47336894 31.05326212 -29 28 C-29.3885634 23.88122799 -29.45820463 21.71100718 -27.1875 18.1875 C-25 16 -25 16 -22 14 C-15.93617021 14.53191489 -15.93617021 14.53191489 -13 16 C-12.90203125 15.34773438 -12.8040625 14.69546875 -12.703125 14.0234375 C-11.73758205 8.38000545 -10.65050294 4.44905046 -7 0 C-4.29393021 -1.35303489 -2.8671629 -0.7884698 0 0 Z "
        fill="#F3F5F1" transform="translate(337,256)" />
    <path
        d="M0 0 C14.66341053 2.71509356 29.25942076 5.65790051 43.81835938 8.88165283 C58.18385693 12.06249718 72.58380181 15.05761866 87 18 C87 20.64 87 23.28 87 26 C70.01974986 23.77049766 53.58564639 18.85118085 37.1875 14.0625 C35.88295868 13.68356094 35.88295868 13.68356094 34.55206299 13.29696655 C22.89193549 9.90038516 11.40750888 6.16779006 0 2 C0 1.34 0 0.68 0 0 Z "
        fill="#F4B564" transform="translate(158,135)" />
    <path
        d="M0 0 C2 1 2 1 3.125 4.0625 C3.41375 5.031875 3.7025 6.00125 4 7 C5.65 5.02 7.3 3.04 9 1 C10.74627478 3.61941217 11.38722388 5.03824877 12 8 C12.99 6.02 13.98 4.04 15 2 C15.66 2 16.32 2 17 2 C16.32953621 12.39218878 14.29761282 23.10716153 11 33 C10.34 33 9.68 33 9 33 C8.34 31.68 7.68 30.36 7 29 C6.01 29.99 5.02 30.98 4 32 C2.68 30.35 1.36 28.7 0 27 C-0.99 27.99 -1.98 28.98 -3 30 C-3.54453749 19.71429185 -1.87800751 10.06075452 0 0 Z "
        fill="#FEF2C8" transform="translate(247,143)" />
    <path
        d="M0 0 C0.66 0.99 1.32 1.98 2 3 C2.65548828 3.92425781 2.65548828 3.92425781 3.32421875 4.8671875 C6.98225396 10.25466629 6.98225396 10.25466629 7.0625 13.625 C6 16 6 16 4 18.6875 C1.99023795 22.0161684 1.72346523 23.27371733 1.5 27 C1.20221982 31.74321283 -0.10284897 34.16553541 -3 38 C-3.5048616 39.26084607 -3.98398383 40.53228864 -4.4375 41.8125 C-6 45 -6 45 -8.5 46.125 C-11 46 -11 46 -12.6640625 44.80078125 C-14.46936903 42.36731251 -14.2237574 41.03588041 -13.875 38.0625 C-13.78992188 37.20785156 -13.70484375 36.35320312 -13.6171875 35.47265625 C-12.92174933 32.68650204 -11.71263986 31.26686284 -10 29 C-9.57599643 26.91703492 -9.57599643 26.91703492 -9.5625 24.75 C-9.0467255 18.46786664 -6.37839403 13.96913432 -2.8125 8.875 C-0.88182668 5.81255267 -0.34026283 3.57275971 0 0 Z "
        fill="#9DB469" transform="translate(333,301)" />
    <path
        d="M0 0 C1 1 1 1 1.375 3.8125 C1.25125 4.864375 1.1275 5.91625 1 7 C0.175 7.556875 -0.65 8.11375 -1.5 8.6875 C-4.2558065 10.71173346 -4.2558065 10.71173346 -4.19140625 13.4453125 C-4.10440367 15.38046083 -4.01182329 17.31536532 -3.9140625 19.25 C-4.0443496 23.41918731 -5.7573896 25.53414756 -8 29 C-8.78453346 32.27312468 -8.78453346 32.27312468 -9 35 C-9.33 35 -9.66 35 -10 35 C-10.42317708 33.07942708 -10.84635417 31.15885417 -11.26953125 29.23828125 C-11.92848023 26.88386428 -11.92848023 26.88386428 -13.54296875 24.6640625 C-16.34071358 19.54861484 -15.71640919 13.65167246 -15 8 C-13.66648861 5.10014189 -12.51979059 4.11891482 -10 2 C-9.360625 1.360625 -8.72125 0.72125 -8.0625 0.0625 C-5.10488429 -1.46112022 -3.13929055 -0.83714415 0 0 Z "
        fill="#9CB469" transform="translate(311,229)" />
    <path
        d="M0 0 C0.66 0.66 1.32 1.32 2 2 C1.73057764 4.55951238 1.26559505 6.52422934 0.0078125 8.77734375 C-1.26327602 11.58063588 -1.51742569 14.13352351 -1.875 17.1875 C-2.69245035 23.0283146 -4.23651485 27.80840411 -7 33 C-8.65 33 -10.3 33 -12 33 C-11.83757812 32.43667969 -11.67515625 31.87335938 -11.5078125 31.29296875 C-10.97686383 28.89553131 -10.86689329 26.76477875 -10.875 24.3125 C-10.87242187 23.52488281 -10.86984375 22.73726563 -10.8671875 21.92578125 C-10.78872222 19.99235086 -10.78872222 19.99235086 -12 19 C-12.84650951 12.11908698 -12.27711877 7.17481929 -8.2890625 1.4609375 C-5.62299608 -1.56060445 -3.65794085 -1.00593373 0 0 Z "
        fill="#9DB46A" transform="translate(337,256)" />
    <path
        d="M0 0 C1.98 0 3.96 0 6 0 C7.32 2.31 8.64 4.62 10 7 C10.556875 6.360625 11.11375 5.72125 11.6875 5.0625 C14.23727939 2.78837244 15.61702587 2.17805127 19 2 C19.66 2.66 20.32 3.32 21 4 C20.81850236 7.32745678 20.66656729 9.98260782 18.8125 12.8125 C17 14 17 14 13.875 14.9375 C12.92625 15.288125 11.9775 15.63875 11 16 C10.03122943 18.03243548 10.03122943 18.03243548 10 20 C8.35 20 6.7 20 5 20 C5 18.35 5 16.7 5 15 C4.34 14.67 3.68 14.34 3 14 C2.30959426 12.34302621 1.6469365 10.6744239 1 9 C0.4225 8.154375 -0.155 7.30875 -0.75 6.4375 C-1.1625 5.633125 -1.575 4.82875 -2 4 C-1.1875 1.6875 -1.1875 1.6875 0 0 Z "
        fill="#896C3B" transform="translate(82,83)" />
    <path
        d="M0 0 C0.33 0.66 0.66 1.32 1 2 C0.05125 2.309375 -0.8975 2.61875 -1.875 2.9375 C-5.39761356 5.26242495 -5.53837198 5.77503367 -6.375 9.6875 C-6.60822882 11.12117128 -6.82467486 12.5581019 -7 14 C-8.32 14 -9.64 14 -11 14 C-11.66 14.66 -12.32 15.32 -13 16 C-16.87653055 15.85642479 -19.29869779 15.49091155 -22.5 13.25 C-24 11 -24 11 -23.75 8.25 C-23.5025 7.5075 -23.255 6.765 -23 6 C-20.3125 5.25 -20.3125 5.25 -17 5 C-14.125 6.9375 -14.125 6.9375 -12 9 C-11.5875 7.906875 -11.175 6.81375 -10.75 5.6875 C-8.44868005 0.38586104 -5.88267074 -2.06688431 0 0 Z "
        fill="#F78088" transform="translate(279,272)" />
    <path
        d="M0 0 C2.34549674 3.51824511 2.57991403 4.85775694 2 9 C-0.31552191 12.04325737 -1.80935592 13.709599 -5.5625 14.625 C-8 14 -8 14 -10.375 11.9375 C-12 9 -12 9 -12 5.375 C-11 2 -11 2 -9.375 0 C-5.92336696 -1.45331917 -3.57190516 -0.92604949 0 0 Z "
        fill="#F5F1EE" transform="translate(193,284)" />
    <path
        d="M0 0 C2.4375 0.625 2.4375 0.625 4.8125 2.6875 C6.4375 5.625 6.4375 5.625 6.4375 9.25 C5.4375 12.625 5.4375 12.625 3.75 14.5625 C0.71780254 15.95567181 -1.26380212 16.11629543 -4.5625 15.625 C-7.08481206 13.43899622 -7.50370588 11.97041543 -8.0625 8.6875 C-7.28029802 3.89651287 -4.74749753 1.15792623 0 0 Z "
        fill="#F9F5F2" transform="translate(165.5625,270.375)" />
    <path
        d="M0 0 C1.32 0.66 2.64 1.32 4 2 C3.54625 2.53625 3.0925 3.0725 2.625 3.625 C0.83289152 5.92810164 0.83289152 5.92810164 0.375 8.8125 C-1.6744223 13.56343352 -5.45821274 16.57409657 -10 19 C-12.2890625 18.69140625 -12.2890625 18.69140625 -14 18 C-14.33 16.68 -14.66 15.36 -15 14 C-10.05 9.38 -5.1 4.76 0 0 Z "
        fill="#E9A650" transform="translate(352,333)" />
    <path
        d="M0 0 C2.17911654 3.96335962 2.32759577 7.6595218 2.375 12.125 C2.40335937 13.34445313 2.43171875 14.56390625 2.4609375 15.8203125 C2 19 2 19 0.1015625 20.9296875 C-2 22 -2 22 -4 22 C-4.13277344 20.81921875 -4.26554687 19.6384375 -4.40234375 18.421875 C-4.5805898 16.86456738 -4.75898293 15.30727658 -4.9375 13.75 C-5.02451172 12.97269531 -5.11152344 12.19539062 -5.20117188 11.39453125 C-5.28818359 10.64042969 -5.37519531 9.88632813 -5.46484375 9.109375 C-5.543396 8.41811523 -5.62194824 7.72685547 -5.70288086 7.01464844 C-6.00544983 4.96304687 -6.46412384 3.00217465 -7 1 C-3.375 -1.125 -3.375 -1.125 0 0 Z "
        fill="#AD7215" transform="translate(482,227)" />
    <path
        d="M0 0 C2.81552726 6.78743178 3.3689719 12.68889006 3 20 C1.68 20 0.36 20 -1 20 C-1.20625 19.236875 -1.4125 18.47375 -1.625 17.6875 C-3.25593081 13.3136401 -5.44671248 9.43781451 -7.7578125 5.390625 C-9 3 -9 3 -9 1 C-5.92677456 0.08941469 -3.19902639 -0.08886184 0 0 Z "
        fill="#8A6D3C" transform="translate(53,158)" />
    <path
        d="M0 0 C2.875 0.9375 2.875 0.9375 4.875 3.9375 C4.42216981 10.39033019 4.42216981 10.39033019 1.875 12.9375 C-1.625 13.1875 -1.625 13.1875 -5.125 12.9375 C-7.125 10.9375 -7.125 10.9375 -7.5 7.5625 C-7.125 3.9375 -7.125 3.9375 -5.5 1.4375 C-3.125 -0.0625 -3.125 -0.0625 0 0 Z "
        fill="#090909" transform="translate(319.125,274.0625)" />
    <path
        d="M0 0 C2.5625 0.3125 2.5625 0.3125 4.375 1.3125 C6.27305577 4.50922551 6.11146585 7.69534146 5.5625 11.3125 C4.375 13.375 4.375 13.375 2.5625 14.3125 C-0.53071432 14.23516964 -1.97204453 13.71589474 -4.3125 11.6875 C-5.93321141 8.26599813 -5.30739425 5.92590687 -4.4375 2.3125 C-2.4375 0.3125 -2.4375 0.3125 0 0 Z "
        fill="#F4EAEA" transform="translate(71.4375,188.6875)" />
    <path
        d="M0 0 C1.0725 0.2475 2.145 0.495 3.25 0.75 C3.0623405 4.78467916 2.45790966 6.50477323 -0.1875 9.625 C-4.28193951 12.75839747 -8.83755706 12.18687734 -13.75 11.75 C-11.78689445 9.05400171 -9.78067078 6.39541479 -7.75 3.75 C-7.110625 2.904375 -6.47125 2.05875 -5.8125 1.1875 C-3.75 -0.25 -3.75 -0.25 0 0 Z "
        fill="#78A84E" transform="translate(117.75,228.25)" />
    <path
        d="M0 0 C1.42907825 2.85815651 0.65480668 5.04301326 0.15625 8.125 C-0.17118789 10.09091334 -0.17118789 10.09091334 1 12 C-15.8929385 12.18451025 -15.8929385 12.18451025 -23 11 C-20.44228607 8.44228607 -18.35507099 8.13624325 -14.875 7.1875 C-9.1625657 5.50737226 -4.84828712 3.42232032 0 0 Z "
        fill="#FCCA8C" transform="translate(333,346)" />
    <path
        d="M0 0 C4.87966751 0.27109264 6.77512464 2.53325899 10 6 C11.3921875 7.0828125 11.3921875 7.0828125 12.8125 8.1875 C13.534375 8.785625 14.25625 9.38375 15 10 C15 10.66 15 11.32 15 12 C12.58871946 13.13866026 10.69341564 14.02166924 8 13.9375 C5.03868531 12.54938374 3.20938757 10.37934046 1 8 C0.38125 7.484375 -0.2375 6.96875 -0.875 6.4375 C-2 5 -2 5 -1.75 2.875 C-1 1 -1 1 0 0 Z "
        fill="#E9A650" transform="translate(389,294)" />
    <path
        d="M0 0 C0.99 0.103125 1.98 0.20625 3 0.3125 C5.71232939 4.38099409 5.30699887 6.47726784 5 11.3125 C3 13.3125 3 13.3125 0 13.625 C-0.99 13.521875 -1.98 13.41875 -3 13.3125 C-5.71232939 9.24400591 -5.30699887 7.14773216 -5 2.3125 C-3 0.3125 -3 0.3125 0 0 Z "
        fill="#EAE2E2" transform="translate(46,190.6875)" />
    <path
        d="M0 0 C0.8353125 0.556875 0.8353125 0.556875 1.6875 1.125 C1.07668919 7.59959459 1.07668919 7.59959459 -0.5625 9.8125 C-2.76334379 11.46313284 -4.27483226 11.61502408 -7 11.8125 C-7.80824219 11.87824219 -8.61648437 11.94398437 -9.44921875 12.01171875 C-10.06410156 12.04910156 -10.67898437 12.08648437 -11.3125 12.125 C-10.80542456 7.76415125 -10.03219631 4.6217524 -7.3125 1.125 C-4.3997192 -0.5927938 -3.20703935 -1.21347435 0 0 Z "
        fill="#75A54C" transform="translate(101.3125,85.875)" />
    <path
        d="M0 0 C2.82190981 -0.43413997 4.37987679 -0.35140315 6.875 1.0625 C8.68060316 4.17214989 7.79952488 6.61739473 7 10 C5 12 5 12 2.5 12.25 C0 12 0 12 -2 10 C-2.31537716 5.66356399 -2.44897847 3.67346771 0 0 Z "
        fill="#E9D5D5" transform="translate(102,117)" />
    <path
        d="M0 0 C4.875 2.875 4.875 2.875 6 4 C6.1875 7.4375 6.1875 7.4375 6 11 C4 13 4 13 2.0546875 13.1953125 C0.03645833 13.13020833 -1.98177083 13.06510417 -4 13 C-4.33 12.34 -4.66 11.68 -5 11 C-4.00390625 8.3984375 -4.00390625 8.3984375 -2.5625 5.375 C-2.08941406 4.37210937 -1.61632812 3.36921875 -1.12890625 2.3359375 C-0.75636719 1.56507813 -0.38382812 0.79421875 0 0 Z "
        fill="#F78585" transform="translate(292,279)" />
    <path
        d="M0 0 C2.5 0.25 2.5 0.25 4.5 2.25 C4.765625 4.125 4.765625 4.125 4.75 6.25 C4.75515625 6.95125 4.7603125 7.6525 4.765625 8.375 C4.5 10.25 4.5 10.25 2.5 12.25 C0 12.5 0 12.5 -2.5 12.25 C-4.5 10.25 -4.5 10.25 -4.765625 8.375 C-4.76046875 7.67375 -4.7553125 6.9725 -4.75 6.25 C-4.75515625 5.54875 -4.7603125 4.8475 -4.765625 4.125 C-4.31971142 0.97737476 -3.03899237 0.30389924 0 0 Z "
        fill="#F8F3F3" transform="translate(80.5,112.75)" />
    <path
        d="M0 0 C0.99 0.33 1.98 0.66 3 1 C2.3709375 1.79921875 1.741875 2.5984375 1.09375 3.421875 C-4.03298816 9.98550857 -8.8435024 16.5988399 -13.30859375 23.63671875 C-15 26 -15 26 -18 28 C-17.07058437 25.42623365 -16.22335698 23.2849727 -14.52734375 21.12109375 C-12.90370709 18.86627352 -12.21533963 16.94811066 -11.375 14.3125 C-9.04786389 8.14650551 -4.85979507 4.29904949 0 0 Z "
        fill="#9EB16E" transform="translate(251,248)" />
    <path
        d="M0 0 C0.495 0.99 0.495 0.99 1 2 C-3.61572262 10.24236183 -11.27536586 13.81589321 -20.1875 16.375 C-24.52074789 17.08536851 -28.62339368 17.1823586 -33 17 C-29.935301 15.26675121 -26.79171344 14.30946406 -23.41503906 13.35131836 C-14.20086552 10.71609896 -6.50071061 7.34862938 0 0 Z "
        fill="#AD8A67" transform="translate(336,339)" />
    <path
        d="M0 0 C0.763125 0.20625 1.52625 0.4125 2.3125 0.625 C2.01923279 4.43747372 1.81119932 6.9543354 -0.5 10.0625 C-2.6875 11.625 -2.6875 11.625 -6.6875 11.625 C-7.90371622 6.27364865 -7.90371622 6.27364865 -6.9375 3.375 C-4.90191285 0.52517799 -3.50359696 -0.48887399 0 0 Z "
        fill="#0B090C" transform="translate(261.6875,264.375)" />
    <path
        d="M0 0 C0.48430493 7.26457399 0.48430493 7.26457399 -1.6875 10.5625 C-4 12 -4 12 -6.75 11.75 C-7.4925 11.5025 -8.235 11.255 -9 11 C-9.47661072 6.90114782 -9.3448928 5.44069635 -6.75 2.125 C-4 0 -4 0 0 0 Z "
        fill="#0A090A" transform="translate(281,274)" />
    <path
        d="M0 0 C3.125 0.1875 3.125 0.1875 6.125 2.1875 C5.25 7.0625 5.25 7.0625 4.125 8.1875 C0.09339809 8.45043056 -1.43392734 8.48154844 -4.875 6.1875 C-3.80901015 0.24841371 -3.80901015 0.24841371 0 0 Z "
        fill="#CF6353" transform="translate(402.875,362.8125)" />
    <path
        d="M0 0 C0 0.66 0 1.32 0 2 C-1.98 2.66 -3.96 3.32 -6 4 C-6.66 7.3 -7.32 10.6 -8 14 C-12 11 -12 11 -12.5 8.125 C-11.89517312 4.344832 -10.64172092 2.7194186 -8 0 C-5.13822943 -1.43088528 -3.06624227 -0.59991697 0 0 Z "
        fill="#F6F3F7" transform="translate(262,262)" />
    <path
        d="M0 0 C3.625 0.375 3.625 0.375 7 1 C7.6875 3.3125 7.6875 3.3125 8 6 C6.875 7.8125 6.875 7.8125 5 9 C2.4375 9.3125 2.4375 9.3125 0 9 C-2 7 -2 7 -2.25 4.5 C-2 2 -2 2 0 0 Z "
        fill="#0B0303" transform="translate(57,202)" />
    <path
        d="M0 0 C0.33 0.66 0.66 1.32 1 2 C0.05125 2.309375 -0.8975 2.61875 -1.875 2.9375 C-5.39761356 5.26242495 -5.53837198 5.77503367 -6.375 9.6875 C-6.60822882 11.12117128 -6.82467486 12.5581019 -7 14 C-7.99 13.67 -8.98 13.34 -10 13 C-11.42662219 10.14675563 -11.31033868 8.16545451 -11 5 C-7.68242657 0.02363986 -5.86748084 -1.65493049 0 0 Z "
        fill="#F9F7FA" transform="translate(279,272)" />
    <path
        d="M0 0 C2.375 1 2.375 1 4 2 C3.125 5.875 3.125 5.875 2 7 C-4.46153846 7.35897436 -4.46153846 7.35897436 -8 5 C-8 3.68 -8 2.36 -8 1 C-5.2201184 -0.3899408 -3.0813674 -0.18488204 0 0 Z "
        fill="#0C0303" transform="translate(94,126)" />
    <path
        d="M0 0 C6.72 0.72 6.72 0.72 8 2 C8.04063832 3.66617115 8.042721 5.33388095 8 7 C4.625 7.625 4.625 7.625 1 8 C-1 6 -1 6 -1.1875 3.4375 C-1 1 -1 1 0 0 Z "
        fill="#120404" transform="translate(88,268)" />
    <path
        d="M0 0 C0.66 0 1.32 0 2 0 C1.76023438 0.67804688 1.52046875 1.35609375 1.2734375 2.0546875 C-0.9689256 9.09375775 -1.06174619 13.94731945 1 21 C1.33708334 22.33239022 1.67167613 23.66542429 2 25 C1.01 24.67 0.02 24.34 -1 24 C-3.49446986 18.73389695 -5.06611174 13.83555901 -4 8 C-2.88845992 5.1898727 -1.54552286 2.59427052 0 0 Z "
        fill="#E9A876" transform="translate(164,293)" />
    <path
        d="M0 0 C5.75 0.75 5.75 0.75 8 3 C7.625 5.625 7.625 5.625 7 8 C1.25 7.25 1.25 7.25 -1 5 C-0.625 2.375 -0.625 2.375 0 0 Z "
        fill="#FD6866" transform="translate(169,290)" />
    <path
        d="M0 0 C2.625 0.375 2.625 0.375 5 1 C5.6875 3.3125 5.6875 3.3125 6 6 C4.8125 7.875 4.8125 7.875 3 9 C0.8125 8.6875 0.8125 8.6875 -1 8 C-1.625 5.125 -1.625 5.125 -2 2 C-1.34 1.34 -0.68 0.68 0 0 Z "
        fill="#120B0B" transform="translate(79,256)" />
    <path
        d="M0 0 C2.125 0.375 2.125 0.375 4 1 C4.6875 2.75 4.6875 2.75 5 5 C3.5625 7.25 3.5625 7.25 2 9 C0.35 8.67 -1.3 8.34 -3 8 C-2.25 2.25 -2.25 2.25 0 0 Z "
        fill="#0B0B0B" transform="translate(164,274)" />
    <path
        d="M0 0 C1.67542976 0.28604898 3.34385343 0.61781233 5 1 C5.625 3.3125 5.625 3.3125 6 6 C5.01 7.485 5.01 7.485 4 9 C2.35 8.67 0.7 8.34 -1 8 C-1.04241723 5.66705225 -1.04092937 3.33297433 -1 1 C-0.67 0.67 -0.34 0.34 0 0 Z "
        fill="#090707" transform="translate(100,261)" />
    <path
        d="M0 0 C3 0.3125 3 0.3125 6 1 C7.52491998 4.04983996 7.23562548 6.6423369 7 10 C5.875 12 5.875 12 4 13 C0.8125 12.6875 0.8125 12.6875 -2 12 C-1.360625 11.79375 -0.72125 11.5875 -0.0625 11.375 C2.34925077 10.10461791 2.34925077 10.10461791 2.75 6.875 C2.8325 5.92625 2.915 4.9775 3 4 C1.68 3.01 0.36 2.02 -1 1 C-0.67 0.67 -0.34 0.34 0 0 Z "
        fill="#F1E2E2" transform="translate(102,259)" />
    <path
        d="M0 0 C1.11955078 0.05607422 1.11955078 0.05607422 2.26171875 0.11328125 C3.050625 0.14808594 3.83953125 0.18289062 4.65234375 0.21875 C7.45323067 0.4712109 10.19424205 0.86065782 12.94921875 1.42578125 C10.39647001 3.88183496 9.09031232 4.41381064 5.49609375 4.71875 C4.243125 4.68394531 2.99015625 4.64914063 1.69921875 4.61328125 C0.4359375 4.58621094 -0.82734375 4.55914062 -2.12890625 4.53125 C-3.57523437 4.47904297 -3.57523437 4.47904297 -5.05078125 4.42578125 C-2.64181386 0.54849088 -2.64181386 0.54849088 0 0 Z "
        fill="#FBC92B" transform="translate(466.05078125,224.57421875)" />
    <path
        d="M0 0 C2.625 0.375 2.625 0.375 5 1 C4.25 6.75 4.25 6.75 2 9 C0.68 9 -0.64 9 -2 9 C-2.125 5.625 -2.125 5.625 -2 2 C-1.34 1.34 -0.68 0.68 0 0 Z "
        fill="#070707" transform="translate(187,286)" />
    <path
        d="M0 0 C2.375 -0.125 2.375 -0.125 5 0 C7 2 7 2 7.3125 5.4375 C7 9 7 9 5.8125 10.9375 C3.43958382 12.32851983 1.70313576 12.21917317 -1 12 C-0.319375 11.443125 0.36125 10.88625 1.0625 10.3125 C3.29910588 8.17445872 3.29910588 8.17445872 2.875 5.4375 C2.03639506 2.79355216 2.03639506 2.79355216 0 0 Z "
        fill="#F4ECEC" transform="translate(81,254)" />
    <path
        d="M0 0 C0.99 0.33 1.98 0.66 3 1 C2.38511719 1.81791016 2.38511719 1.81791016 1.7578125 2.65234375 C-2.12549573 8.08711723 -3.95295229 12.4035994 -5 19 C-5.66 19 -6.32 19 -7 19 C-7.72641371 12.31699385 -5.42741688 7.68120313 -2 2 C-1.34 1.34 -0.68 0.68 0 0 Z "
        fill="#E9A876" transform="translate(144,273)" />
    <path
        d="M0 0 C0 0.99 0 1.98 0 3 C-0.58007812 3.09796875 -1.16015625 3.1959375 -1.7578125 3.296875 C-7.04684235 4.30929656 -10.59939324 5.7519331 -15 9 C-15.99 9.33 -16.98 9.66 -18 10 C-16.60802671 6.61743279 -15.1974504 5.16311318 -12.0625 3.3125 C-11.37285156 2.89613281 -10.68320313 2.47976563 -9.97265625 2.05078125 C-6.53291297 0.21852196 -3.83348525 -0.10360771 0 0 Z "
        fill="#EAA976" transform="translate(178,259)" />
    <path
        d="M0 0 C1.67542976 0.28604898 3.34385343 0.61781233 5 1 C5 2.98 5 4.96 5 7 C2.625 7.625 2.625 7.625 0 8 C-0.66 7.34 -1.32 6.68 -2 6 C-1.44444444 1.44444444 -1.44444444 1.44444444 0 0 Z "
        fill="#0F0F0F" transform="translate(70,192)" />
    <path
        d="M0 0 C2.0625 0.4375 2.0625 0.4375 4 1 C4.625 2.8125 4.625 2.8125 5 5 C4.01 6.485 4.01 6.485 3 8 C0.69 7.34 -1.62 6.68 -4 6 C-1.125 1.125 -1.125 1.125 0 0 Z "
        fill="#EAA850" transform="translate(378,296)" />
    <path
        d="M0 0 C2.125 0.375 2.125 0.375 4 1 C4.125 6.75 4.125 6.75 3 9 C1.68 8.67 0.36 8.34 -1 8 C-1.625 5.125 -1.625 5.125 -2 2 C-1.34 1.34 -0.68 0.68 0 0 Z "
        fill="#191815" transform="translate(394,352)" />
    <path
        d="M0 0 C0.598125 0.226875 1.19625 0.45375 1.8125 0.6875 C1.3175 1.05875 0.8225 1.43 0.3125 1.8125 C-1.82078708 4.47910885 -1.54080461 6.36643663 -1.1875 9.6875 C-0.5275 10.3475 0.1325 11.0075 0.8125 11.6875 C-0.5075 11.6875 -1.8275 11.6875 -3.1875 11.6875 C-5.1875 9.6875 -5.1875 9.6875 -5.5 6.25 C-5.1875 2.6875 -5.1875 2.6875 -3.9375 0.6875 C-2.1875 -0.3125 -2.1875 -0.3125 0 0 Z "
        fill="#F7F4E7" transform="translate(414.1875,352.3125)" />
    <path
        d="M0 0 C0 3 0 3 -1.875 6.5 C-4.47267479 11.43742442 -5.23457324 16.52115579 -6 22 C-6.66 22 -7.32 22 -8 22 C-7.3247272 7.60970382 -7.3247272 7.60970382 -1.8125 1.625 C-1.214375 1.08875 -0.61625 0.5525 0 0 Z "
        fill="#E7A675" transform="translate(157,273)" />
    <path
        d="M0 0 C2.125 0.9375 2.125 0.9375 4 2 C4 3.65 4 5.3 4 7 C2.02 7.99 2.02 7.99 0 9 C-2 7 -2 7 -2.125 3.875 C-2.08375 2.92625 -2.0425 1.9775 -2 1 C-1.34 0.67 -0.68 0.34 0 0 Z "
        fill="#090909" transform="translate(45,193)" />
    <path
        d="M0 0 C1.67542976 0.28604898 3.34385343 0.61781233 5 1 C5.125 3.375 5.125 3.375 5 6 C4.34 6.66 3.68 7.32 3 8 C0.875 7.625 0.875 7.625 -1 7 C-1.04254356 5.00045254 -1.04080783 2.99958364 -1 1 C-0.67 0.67 -0.34 0.34 0 0 Z "
        fill="#18160B" transform="translate(413,355)" />
    <path
        d="M0 0 C2.125 0.375 2.125 0.375 4 1 C3.484375 1.37125 2.96875 1.7425 2.4375 2.125 C0.66480146 4.01279229 0.66480146 4.01279229 1.1875 7.0625 C1.76648363 10.09515868 1.76648363 10.09515868 4 12 C-0.75 11.25 -0.75 11.25 -3 9 C-2.53846154 2.53846154 -2.53846154 2.53846154 0 0 Z "
        fill="#FBF8EB" transform="translate(392,350)" />
    <path
        d="M0 0 C0.66 0.66 1.32 1.32 2 2 C1.77358491 8.22641509 1.77358491 8.22641509 -0.9375 10.9375 C-3 12 -3 12 -5 12 C-5 11.34 -5 10.68 -5 10 C-5.66 9.67 -6.32 9.34 -7 9 C-6.401875 8.814375 -5.80375 8.62875 -5.1875 8.4375 C-1.90018201 6.27726247 -1.35145313 3.64892345 0 0 Z "
        fill="#F2EFED" transform="translate(170,274)" />
    <path
        d="M0 0 C2.5 -0.3125 2.5 -0.3125 5 0 C7 2 7 2 7.125 4.625 C7.08375 5.40875 7.0425 6.1925 7 7 C6.34 5.68 5.68 4.36 5 3 C3.68 3.33 2.36 3.66 1 4 C0.67 5.65 0.34 7.3 0 9 C-0.66 9 -1.32 9 -2 9 C-2.25 3.375 -2.25 3.375 0 0 Z "
        fill="#F5EFEF" transform="translate(102,117)" />
    <path
        d="M0 0 C0.66 0 1.32 0 2 0 C2.66 3.3 3.32 6.6 4 10 C2.68 10.99 1.36 11.98 0 13 C0 8.71 0 4.42 0 0 Z "
        fill="#E9A87A" transform="translate(198,287)" />
    <path
        d="M0 0 C0 0.66 0 1.32 0 2 C-1.64453125 3.62109375 -1.64453125 3.62109375 -3.8125 5.4375 C-6.31102718 7.54463676 -8.7242056 9.65241398 -11 12 C-10.51594564 7.68819268 -9.37995134 5.9410446 -6.0625 3.1875 C-5.35222656 2.58292969 -4.64195312 1.97835938 -3.91015625 1.35546875 C-2 0 -2 0 0 0 Z "
        fill="#E7A775" transform="translate(183,265)" />
    <path
        d="M0 0 C2.0625 0.4375 2.0625 0.4375 4 1 C3.67 2.98 3.34 4.96 3 7 C1.68 6.67 0.36 6.34 -1 6 C-1.042721 4.33388095 -1.04063832 2.66617115 -1 1 C-0.67 0.67 -0.34 0.34 0 0 Z "
        fill="#141414" transform="translate(79,116)" />
    <path
        d="M0 0 C2.5 -0.3125 2.5 -0.3125 5 0 C5.66 0.66 6.32 1.32 7 2 C6.625 4.625 6.625 4.625 6 7 C5.34 6.01 4.68 5.02 4 4 C0.93443402 3.26656572 0.93443402 3.26656572 -2 3 C-1.34 2.01 -0.68 1.02 0 0 Z "
        fill="#F0E1E1" transform="translate(78,113)" />
    <path
        d="M0 0 C0.78375 0.04125 1.5675 0.0825 2.375 0.125 C2.045 1.115 1.715 2.105 1.375 3.125 C0.715 3.41375 0.055 3.7025 -0.625 4 C-2.91650599 4.9803382 -2.91650599 4.9803382 -3.375 7.75 C-3.4575 8.53375 -3.54 9.3175 -3.625 10.125 C-4.285 9.795 -4.945 9.465 -5.625 9.125 C-4.6356383 0.22074468 -4.6356383 0.22074468 0 0 Z "
        fill="#F2D8D8" transform="translate(71.625,188.875)" />
    <path
        d="M0 0 C1.32 0 2.64 0 4 0 C4 1.65 4 3.3 4 5 C2.68 5.33 1.36 5.66 0 6 C-0.38218767 4.34385343 -0.71395102 2.67542976 -1 1 C-0.67 0.67 -0.34 0.34 0 0 Z "
        fill="#090909" transform="translate(103,120)" />
    <path
        d="M0 0 C1.98 0 3.96 0 6 0 C6.33 1.32 6.66 2.64 7 4 C5.02 4 3.04 4 1 4 C0.67 2.68 0.34 1.36 0 0 Z "
        fill="#0D0505" transform="translate(400,365)" />
    <path
        d="M0 0 C-1 2 -1 2 -2.765625 2.62109375 C-5.14150323 3.02399618 -7.34179517 3.09791478 -9.75 3.0625 C-10.54921875 3.05347656 -11.3484375 3.04445313 -12.171875 3.03515625 C-12.77515625 3.02355469 -13.3784375 3.01195312 -14 3 C-10.05730674 0.9048917 -4.23171977 -2.11585988 0 0 Z "
        fill="#BA9C70" transform="translate(317,353)" />
    <path
        d="M0 0 C0.33 0.66 0.66 1.32 1 2 C0.23883449 3.15227823 -0.53432693 4.2966386 -1.3125 5.4375 C-1.74175781 6.07558594 -2.17101562 6.71367187 -2.61328125 7.37109375 C-4 9 -4 9 -7 10 C-5.6062718 5.56541027 -3.39417765 3.12621626 0 0 Z "
        fill="#B4936B" transform="translate(336,339)" />
    <path
        d="M0 0 C1.67542976 0.28604898 3.34385343 0.61781233 5 1 C6 4 6 4 5.0625 6.1875 C4.5365625 7.0846875 4.5365625 7.0846875 4 8 C3.731875 7.21625 3.46375 6.4325 3.1875 5.625 C2.15185568 2.71885077 2.15185568 2.71885077 -1 1 C-0.67 0.67 -0.34 0.34 0 0 Z "
        fill="#DFD7D7" transform="translate(45,191)" />
    <path
        d="M0 0 C3 1 3 1 4.25 3.375 C5 6 5 6 4 9 C2.10134397 6.02819057 0.64544429 3.48539917 0 0 Z "
        fill="#E8A875" transform="translate(149,305)" />
    <path
        d="M0 0 C0.66 0 1.32 0 2 0 C3.35439668 2.70879335 3.06501451 5.00933268 3 8 C2.01 8.495 2.01 8.495 1 9 C0.67 6.03 0.34 3.06 0 0 Z "
        fill="#E7A677" transform="translate(209,282)" />
</svg>