<?xml version="1.0" encoding="UTF-8"?>
<svg version="1.1" xmlns="http://www.w3.org/2000/svg" width="408" height="439">
<path d="M0 0 C10.82450872 8.80637998 14.28470014 22.31874878 16.84375 35.5 C16.94921875 38.4765625 16.94921875 38.4765625 16.84375 40.5 C17.78476562 40.67015625 18.72578125 40.8403125 19.6953125 41.015625 C29.96881098 43.01502222 36.85857964 45.69056514 42.84375 54.5 C44.45987655 58.22510948 45.60226154 62.0374028 46.71875 65.9375 C47.02554688 66.95521484 47.33234375 67.97292969 47.6484375 69.02148438 C48.39617848 71.51005982 49.1273691 74.00225269 49.84375 76.5 C50.55587646 76.48042236 51.26800293 76.46084473 52.00170898 76.44067383 C67.47550605 76.1945205 81.25366905 81.40754568 92.51171875 92.02734375 C98.62394651 98.50814806 104.21488852 105.58230534 103.96875 114.8125 C103.95070313 115.69550781 103.93265625 116.57851562 103.9140625 117.48828125 C103.87925781 118.48408203 103.87925781 118.48408203 103.84375 119.5 C104.565625 119.7475 105.2875 119.995 106.03125 120.25 C112.87001305 123.28945024 115.77199316 127.93047625 118.84375 134.5 C122.33264873 143.63759192 121.4519685 152.54974372 117.84375 161.5 C113.5039993 169.37584386 107.15685723 176.85390034 98.84375 180.5 C97.30278041 180.67299313 95.76106002 180.83939582 94.21875 181 C91.86972206 181.31414839 91.86972206 181.31414839 89.84375 182.5 C88.24587901 185.39753207 87.23038626 188.33147024 86.12890625 191.44921875 C83.37739055 197.98093231 78.16417757 201.20432009 71.78125 203.8125 C66.00624405 205.74559023 60.168362 206.22996283 54.12890625 206.6171875 C50.60559903 207.20904087 50.60559903 207.20904087 48.6171875 210.375 C48.03195312 211.40625 47.44671875 212.4375 46.84375 213.5 C41.15007586 219.44467138 33.71011623 221.73110812 25.84375 223.5 C24.52375 223.5 23.20375 223.5 21.84375 223.5 C17.92386491 259.90913637 15.33387118 296.25355445 15.86645508 332.89038086 C15.87744232 333.86170456 15.88842957 334.83302826 15.89974976 335.83378601 C15.92141286 337.63040723 15.95192646 339.42695712 15.99380493 341.22322083 C16.16331593 355.44269428 16.16331593 355.44269428 12.50450134 360.26519775 C9.53637285 362.47206138 5.83213277 361.84121661 2.28125 361.75 C1.41008545 361.73904297 0.5389209 361.72808594 -0.35864258 361.71679688 C-8.8098688 361.58071342 -17.25566931 361.21095476 -25.70019531 360.86083984 C-36.49957973 360.42034285 -47.23990578 360.06186335 -58.01953125 360.9921875 C-65.58368046 361.59862595 -73.1215447 361.7209762 -80.70605469 361.74023438 C-83.04917172 361.75007527 -85.39145723 361.78128711 -87.734375 361.8125 C-89.24739075 361.81902084 -90.7604126 361.82427491 -92.2734375 361.828125 C-92.96210907 361.8404718 -93.65078064 361.8528186 -94.36032104 361.86553955 C-99.40776511 361.84252677 -102.76975562 360.83444923 -107.15625 358.5 C-112.01135852 351.21733723 -110.08515294 340.70881036 -109.21875 332.375 C-106.40031862 299.92884057 -107.04038946 266.79707483 -111.15625 234.5 C-111.31504639 233.21464355 -111.31504639 233.21464355 -111.47705078 231.90332031 C-111.69979091 230.1017573 -111.92726199 228.30077953 -112.15625 226.5 C-113.39375 226.726875 -114.63125 226.95375 -115.90625 227.1875 C-123.23207494 227.93503316 -130.0484824 226.80345376 -136.0390625 222.36328125 C-138.49119661 220.14349221 -140.81821723 217.83803277 -143.15625 215.5 C-144.14625 214.84 -145.13625 214.18 -146.15625 213.5 C-147.80931232 213.95790036 -149.4604219 214.42650393 -151.09130859 214.95800781 C-160.009956 217.2989155 -172.99706979 216.97055355 -181.24609375 212.82421875 C-187.91478958 208.20113514 -191.10923154 202.08409843 -192.578125 194.25 C-193.20877761 186.48812169 -190.39960526 179.75483762 -187.55908203 172.66894531 C-185.56835465 167.54018974 -184.59514747 163.99480582 -186.15625 158.5 C-187.30384481 156.40194379 -187.30384481 156.40194379 -188.90625 154.8125 C-189.44636719 154.22855469 -189.98648438 153.64460937 -190.54296875 153.04296875 C-192.23843113 151.35392863 -192.23843113 151.35392863 -194.71875 149.625 C-200.25808995 144.79583184 -202.76796113 138.22667023 -203.359375 131.02734375 C-203.62297315 116.46354574 -198.7450292 101.8553074 -188.53125 91.25 C-183.52332733 86.4409479 -179.20515452 85.2908427 -172.34375 84.875 C-170.60158203 84.76285156 -170.60158203 84.76285156 -168.82421875 84.6484375 C-167.94378906 84.59945312 -167.06335938 84.55046875 -166.15625 84.5 C-165.95708984 83.10394531 -165.95708984 83.10394531 -165.75390625 81.6796875 C-164.21947984 73.51613782 -156.85439973 67.03999262 -150.25 62.50390625 C-141.16397796 56.98575398 -132.90663112 54.19416275 -122.15625 55.5 C-118.98399307 56.55436285 -116.07905061 57.88343868 -113.15625 59.5 C-112.74375 58.84773438 -112.33125 58.19546875 -111.90625 57.5234375 C-106.57834085 49.46021786 -100.97983003 43.67339327 -91.54296875 40.82421875 C-87.24305271 40.24010577 -83.27622965 41.30443179 -79.15625 42.5 C-79.26066406 41.30117187 -79.26066406 41.30117187 -79.3671875 40.078125 C-79.85911728 30.09897796 -77.75222644 22.6715315 -71.03515625 15.11328125 C-66.57447023 10.93090493 -61.85557143 7.72681418 -56.15625 5.5 C-55.3003125 5.15324219 -54.444375 4.80648437 -53.5625 4.44921875 C-48.1803226 2.94936885 -42.68335303 2.82795348 -37.11914062 2.55273438 C-31.23478519 2.12300198 -27.20321937 0.87138008 -22.23754883 -2.3503418 C-14.94221438 -6.38010484 -6.52947074 -4.56026528 0 0 Z " fill="#41AC3B" transform="translate(261.15625,35.5)"/>
<path d="M0 0 C0.73250977 0.22268555 1.46501953 0.44537109 2.21972656 0.67480469 C5.27260558 1.60382848 8.31783198 2.55538504 11.35839844 3.52392578 C12.82073684 3.98915616 14.28478216 4.44905541 15.75048828 4.90356445 C17.10427996 5.32345456 18.45471533 5.75443973 19.80029297 6.19995117 C26.12517965 8.15202741 32.54365086 8.45260213 39.125 8.8125 C39.01224731 9.85978271 39.01224731 9.85978271 38.8972168 10.92822266 C35.11313761 46.64100628 32.62540316 82.27335882 33.14770508 118.20288086 C33.15869232 119.17420456 33.16967957 120.14552826 33.18099976 121.14628601 C33.20266286 122.94290723 33.23317646 124.73945712 33.27505493 126.53572083 C33.44456593 140.75519428 33.44456593 140.75519428 29.78575134 145.57769775 C26.81762285 147.78456138 23.11338277 147.15371661 19.5625 147.0625 C18.25575317 147.04606445 18.25575317 147.04606445 16.92260742 147.02929688 C8.4713812 146.89321342 0.02558069 146.52345476 -8.41894531 146.17333984 C-19.21832973 145.73284285 -29.95865578 145.37436335 -40.73828125 146.3046875 C-48.30243046 146.91112595 -55.8402947 147.0334762 -63.42480469 147.05273438 C-65.76792172 147.06257527 -68.11020723 147.09378711 -70.453125 147.125 C-71.96614075 147.13152084 -73.4791626 147.13677491 -74.9921875 147.140625 C-75.68085907 147.1529718 -76.36953064 147.1653186 -77.07907104 147.17803955 C-82.12651511 147.15502677 -85.48850562 146.14694923 -89.875 143.8125 C-94.73010852 136.52983723 -92.80390294 126.02131036 -91.9375 117.6875 C-89.11906862 85.24134057 -89.75913946 52.10957483 -93.875 19.8125 C-94.03379639 18.52714355 -94.03379639 18.52714355 -94.19580078 17.21582031 C-94.41854091 15.4142573 -94.64601199 13.61327953 -94.875 11.8125 C-94.35365479 11.64524414 -93.83230957 11.47798828 -93.29516602 11.30566406 C-88.9700412 9.89380384 -84.70488309 8.38525654 -80.46484375 6.734375 C-79.53736328 6.37859375 -78.60988281 6.0228125 -77.65429688 5.65625 C-75.75108577 4.92374263 -73.8526136 4.17880824 -71.95898438 3.421875 C-64.9257119 0.75931395 -60.20090768 -0.02766993 -53.07421875 3.00390625 C-52.24535156 3.45636719 -51.41648438 3.90882813 -50.5625 4.375 C-44.01161219 7.48757653 -38.29026107 8.06072418 -31.27734375 6.078125 C-26.2476945 4.18131755 -21.68824749 1.67463236 -17.17578125 -1.234375 C-11.39436021 -3.62939492 -5.69576473 -1.81654497 0 0 Z " fill="#89D185" transform="translate(243.875,250.1875)"/>
<path d="M0 0 C4.26731581 2.09182148 7.10933389 4.60001154 9.30859375 8.87890625 C11.08584189 14.33114208 10.84663902 20.52077202 8.8125 25.875 C6.55901121 29.7603255 4.07651241 32.9617438 0 35 C-3.88933523 35.44196991 -5.71594267 35.15595304 -9.1875 33.25 C-13.65865207 29.67307834 -15.60479604 26.58081585 -17 21 C-17.61639057 14.63063075 -16.65127792 10.30170076 -13 5 C-9.26195177 0.55096853 -5.82918219 -0.93683285 0 0 Z " fill="#F7FAF7" transform="translate(243,290)"/>
<path d="M0 0 C4.53222336 3.44843082 7.53061182 7.59407356 8.3203125 13.32421875 C8.66142602 20.74912304 6.45195807 25.45828278 2.3125 31.4375 C-1.28437519 33.86782108 -4.68957543 34.54516331 -9 34 C-13.90447566 31.41126525 -17.31589512 27.25044463 -19 22 C-19.8705015 14.91629406 -19.38108554 8.8141509 -15 3 C-10.29870064 -1.48263427 -6.02153796 -1.91442612 0 0 Z " fill="#F5F8F5" transform="translate(199,291)"/>
<path d="M0 0 C3.68540044 1.76655558 5.64636075 4.12520817 7.1875 7.9375 C6.91383063 12.40743311 5.13931157 13.86068843 2 17 C-1.4492432 18.7246216 -5.22131431 18.36610104 -9 18 C-11.9993049 16.72370004 -13.45643506 15.77652135 -15.3125 13.125 C-16.18019075 10.44304677 -16.47870098 8.80382 -16 6 C-11.10260433 0.32933133 -7.34537635 -1.08455221 0 0 Z " fill="#E93933" transform="translate(221,316)"/>
<path d="M0 0 C3.4375 1.25 3.4375 1.25 5.9375 3.75 C7.88099703 8.2848264 7.81188567 11.54674513 6.4375 16.25 C4.8125 18.8125 4.8125 18.8125 2.4375 20.25 C-1.0625 20.8125 -1.0625 20.8125 -4.5625 20.25 C-7.24860593 18.11489016 -8.31790751 16.5052671 -8.9765625 13.125 C-9.23803793 9.05148797 -8.8814979 6.00798873 -6.5 2.625 C-3.5625 0.25 -3.5625 0.25 0 0 Z " fill="#0A0A0A" transform="translate(240.5625,296.75)"/>
<path d="M0 0 C3.8664261 0.96660652 5.21564806 2.36164009 7.5 5.625 C8.42199701 10.47343253 8.14776123 14.32947753 5.9375 18.75 C3.5 20.625 3.5 20.625 0 21.25 C-3.5 20.625 -3.5 20.625 -5.9375 18.75 C-8.14776123 14.32947753 -8.42199701 10.47343253 -7.5 5.625 C-5.21564806 2.36164009 -3.8664261 0.96660652 0 0 Z " fill="#060606" transform="translate(193.5,296.375)"/>
</svg>
