<?xml version="1.0" encoding="UTF-8"?>
<svg version="1.1" xmlns="http://www.w3.org/2000/svg" width="550" height="452">
	<path
		d="M0 0 C5.61668212 5.37049638 10.59734982 10.85541628 13.5 18.125 C14.29072311 20.11433871 14.29072311 20.11433871 15.625 21.625 C18.64787661 22.59400574 21.46643772 22.73298504 24.625 22.625 C24.625 23.615 24.625 24.605 24.625 25.625 C28.42537583 24.35820806 29.0322977 22.91048488 31.25 19.625 C42.80470739 3.37685045 59.10082027 -6.70737484 78.640625 -10.64453125 C100.50803049 -14.30843735 122.69934123 -10.78966089 142.625 -1.375 C143.25921875 -1.07577637 143.8934375 -0.77655273 144.546875 -0.46826172 C153.55303589 3.87045629 161.10892069 8.97381798 168.625 15.625 C169.30691406 16.16382813 169.98882812 16.70265625 170.69140625 17.2578125 C187.61761724 30.86717002 198.918275 52.45832206 202.625 73.625 C204.15129915 96.3636994 200.09026921 116.30190909 193.11230469 137.76586914 C192.49822549 139.7883388 192.49822549 139.7883388 192.625 142.625 C193.62917969 143.1096875 194.63335937 143.594375 195.66796875 144.09375 C232.07416621 161.85134183 259.1036165 189.04214606 273.5625 227.375 C274.94923769 232.09692961 275.63245613 236.76503163 274.625 241.625 C272.97416704 244.37638826 270.90372551 246.3933124 268.625 248.625 C268.05394531 249.42421875 267.48289062 250.2234375 266.89453125 251.046875 C264.03907909 254.29059002 260.84795139 256.1070766 257.0625 258.0625 C255.8710437 258.68668823 255.8710437 258.68668823 254.65551758 259.32348633 C244.53049752 264.43458091 233.91382977 268.46533866 223.33959961 272.53881836 C206.93536676 277.86939849 206.93536676 277.86939849 193.625 287.625 C191.80836589 295.70283839 194.96531058 305.18064186 196.61846924 313.11056519 C201.30946832 335.81801919 201.30946832 335.81801919 201.25 346.0625 C201.24806641 346.77462646 201.24613281 347.48675293 201.24414062 348.22045898 C201.00789065 354.01218464 199.09297067 358.0441085 195.1875 362.25 C181.97415978 372.34668012 160.25910375 371.84864201 144.3984375 370.3125 C139.36843106 369.48158448 137.06666228 368.52638797 133.625 364.625 C129.45004277 355.81120141 128.14789958 345.78909638 126.5 336.25 C126.24686006 334.8331962 125.9929564 333.41652864 125.73828125 332 C124.34453469 324.17121173 123.12354691 316.34669837 122.12011719 308.45703125 C121.446801 304.60571576 120.39522782 302.39522782 117.625 299.625 C103.72547933 290.84485011 86.52138578 294.40974237 71.3671875 297.65234375 C57.80447719 300.53399351 40.99548743 302.11879934 28.4765625 294.90625 C24.0042951 291.81151644 20.4192622 289.05551997 19.13232422 283.49707031 C18.28320651 278.23060828 17.90368961 272.94854028 17.625 267.625 C15.57861863 269.53160123 14.60521746 270.67225828 13.5 273.3125 C11.625 275.625 11.625 275.625 9.43359375 275.9453125 C7.14468443 275.93814846 4.90325054 275.8399293 2.625 275.625 C2.34785156 274.98304688 2.07070313 274.34109375 1.78515625 273.6796875 C0.08232905 270.66390599 -2.10445115 270.69536144 -5.375 269.625 C-15.3454812 264.07737088 -23.48697427 255.74809935 -31.375 247.625 C-33.31882026 253.45646079 -32.66467059 260.0059023 -32.6875 266.125 C-32.69144775 266.89096497 -32.69539551 267.65692993 -32.69946289 268.44610596 C-32.72351898 278.49396939 -32.14941046 288.08399649 -30.375 298 C-28.46025278 308.89926601 -27.92451559 319.52530681 -27.875 330.5625 C-27.86500977 331.32753845 -27.85501953 332.0925769 -27.84472656 332.88079834 C-27.71947323 344.49209522 -28.57314656 356.36029904 -36.375 365.625 C-44.87620714 370.81587328 -59.9117356 368.36466106 -69.1875 366.125 C-91.47191178 359.15959916 -110.89448772 343.75026707 -125.375 325.625 C-126.11878906 324.7071875 -126.86257812 323.789375 -127.62890625 322.84375 C-145.6722567 300.22046815 -158.40721111 274.69499608 -168.375 247.625 C-168.71402344 246.70444824 -169.05304688 245.78389648 -169.40234375 244.83544922 C-182.52379969 208.63946509 -190.85337294 160.67303648 -174 124.0625 C-172.08740283 119.73674313 -172.4113022 116.88887657 -173.65234375 112.37988281 C-180.38423436 86.71682415 -176.93157391 60.51809357 -164.0625 37.5 C-148.13722252 11.11838483 -121.5444728 -5.41352689 -92.16625977 -13.109375 C-62.36981859 -20.41239041 -24.45411655 -21.13455322 0 0 Z M-141.375 19.625 C-142.65117187 20.76195312 -142.65117187 20.76195312 -143.953125 21.921875 C-159.58472349 36.59447972 -169.82126476 57.98532864 -170.65234375 79.4140625 C-170.8852665 89.78194563 -171.00415009 99.77444976 -167.375 109.625 C-164.44028438 106.77921516 -161.70741032 103.86808235 -159.0625 100.75 C-145.01628376 84.69289383 -124.06296831 74.17395124 -104.375 66.625 C-104.375 62.09321315 -106.75337898 58.86236668 -108.8671875 54.92578125 C-113.14203717 45.56762589 -114.26132191 33.8643976 -111.65234375 23.8515625 C-109.7281457 19.66039427 -107.4542226 17.5814204 -103.375 15.625 C-93.25057486 14.26774011 -85.4606577 15.88859842 -77.3125 21.875 C-76.673125 22.4525 -76.03375 23.03 -75.375 23.625 C-72.93950657 22.54255848 -71.15919039 21.43916395 -69.125 19.6875 C-62.12164621 14.43498466 -54.90365327 13.64630208 -46.375 14.625 C-38.79450922 16.54723108 -31.87222756 19.31786079 -27.0625 25.6875 C-24.61169787 30.34504098 -24.56192049 35.4566484 -24.375 40.625 C-23.81167969 40.46515625 -23.24835938 40.3053125 -22.66796875 40.140625 C-15.37335507 38.50026894 -8.08739917 39.39072736 -1.375 42.625 C2.17214499 44.90367986 5.43571888 47.46251608 6.625 51.625 C7.08096012 57.27890549 6.77484932 60.73730277 3.625 65.625 C-0.03305265 69.71341178 -4.26947913 73.23644972 -8.38671875 76.85546875 C-9.75318443 78.07159636 -11.08151734 79.33151734 -12.375 80.625 C-11.71113281 81.23085937 -11.04726562 81.83671875 -10.36328125 82.4609375 C-1.35293321 91.01090279 3.31573303 98.80287403 4.1875 111.1875 C4.27128906 112.32316406 4.35507812 113.45882812 4.44140625 114.62890625 C6.41695179 150.61839553 -4.8658759 181.28916971 -20.8203125 213.06445312 C-23.60943603 218.67384424 -26.17466768 224.31663221 -28.38671875 230.17578125 C-29.03386841 231.88181519 -29.03386841 231.88181519 -29.6940918 233.62231445 C-30.63118078 236.53323671 -30.63118078 236.53323671 -29.58740234 238.9140625 C-22.67733692 248.66552011 -11.84579517 261.5134102 -0.19921875 265.33984375 C2.01966306 265.68669251 3.4599324 265.19810613 5.625 264.625 C6.594375 264.686875 7.56375 264.74875 8.5625 264.8125 C13.15782902 264.53115333 15.22373992 262.17909333 18.20532227 258.87231445 C20.00838709 256.0181078 20.26702163 253.76651375 20.65234375 250.41796875 C20.8023584 249.19859619 20.95237305 247.97922363 21.10693359 246.72290039 C21.33243896 244.7872522 21.33243896 244.7872522 21.5625 242.8125 C25.34995288 212.74100904 35.36853811 189.92745063 59.23046875 170.640625 C87.65706735 148.62341986 126.2570054 132.46429065 162.625 135.625 C169.05389487 136.54440109 175.3375877 138.01929163 181.625 139.625 C182.95815349 139.95905188 184.29143872 140.29257978 185.625 140.625 C195.54307437 109.59443742 203.57971131 80.06496646 187.89819336 49.40551758 C184.43945085 42.98123678 180.28358877 37.23775756 175.625 31.625 C174.92761719 30.76390625 174.23023438 29.9028125 173.51171875 29.015625 C157.04210197 9.62543632 132.56610284 -1.9019208 107.625 -5.375 C86.74902678 -7.04155387 66.72191522 -3.96154314 49.64453125 8.86328125 C47.17798963 11.02383737 44.88180119 13.24744746 42.625 15.625 C41.60792969 16.68267578 41.60792969 16.68267578 40.5703125 17.76171875 C37.1577421 21.47873008 34.5997617 24.97850189 32.625 29.625 C33.12 30.2025 33.615 30.78 34.125 31.375 C35.625 33.625 35.625 33.625 35.625 37.625 C34.614375 37.25375 33.60375 36.8825 32.5625 36.5 C28.33780657 35.25845744 25.69562767 36.12966739 21.625 37.625 C21.295 36.305 20.965 34.985 20.625 33.625 C20.0475 33.955 19.47 34.285 18.875 34.625 C16.625 35.625 16.625 35.625 12.625 35.625 C12.53863281 35.01914063 12.45226562 34.41328125 12.36328125 33.7890625 C10.37283763 21.9194446 5.04201818 14.07134577 -3.375 5.625 C-4.20644531 4.75875 -4.20644531 4.75875 -5.0546875 3.875 C-18.00666042 -8.49703383 -39.06890785 -11.26755703 -56.25 -11.625 C-86.99673372 -10.91960935 -118.35919728 -1.38942857 -141.375 19.625 Z "
		fill="#FEA153" transform="translate(259.375,63.375)" />
	<path
		d="M0 0 C5.61668212 5.37049638 10.59734982 10.85541628 13.5 18.125 C14.29072311 20.11433871 14.29072311 20.11433871 15.625 21.625 C18.64787661 22.59400574 21.46643772 22.73298504 24.625 22.625 C24.625 23.615 24.625 24.605 24.625 25.625 C28.42537583 24.35820806 29.0322977 22.91048488 31.25 19.625 C42.80470739 3.37685045 59.10082027 -6.70737484 78.640625 -10.64453125 C100.50803049 -14.30843735 122.69934123 -10.78966089 142.625 -1.375 C143.25921875 -1.07577637 143.8934375 -0.77655273 144.546875 -0.46826172 C153.55303589 3.87045629 161.10892069 8.97381798 168.625 15.625 C169.30691406 16.16382813 169.98882812 16.70265625 170.69140625 17.2578125 C187.61761724 30.86717002 198.918275 52.45832206 202.625 73.625 C204.15129915 96.3636994 200.09026921 116.30190909 193.11230469 137.76586914 C192.49822549 139.7883388 192.49822549 139.7883388 192.625 142.625 C193.62917969 143.1096875 194.63335937 143.594375 195.66796875 144.09375 C232.07416621 161.85134183 259.1036165 189.04214606 273.5625 227.375 C274.94923769 232.09692961 275.63245613 236.76503163 274.625 241.625 C272.97416704 244.37638826 270.90372551 246.3933124 268.625 248.625 C268.05394531 249.42421875 267.48289062 250.2234375 266.89453125 251.046875 C264.03907909 254.29059002 260.84795139 256.1070766 257.0625 258.0625 C255.8710437 258.68668823 255.8710437 258.68668823 254.65551758 259.32348633 C244.53049752 264.43458091 233.91382977 268.46533866 223.33959961 272.53881836 C206.93536676 277.86939849 206.93536676 277.86939849 193.625 287.625 C191.80836589 295.70283839 194.96531058 305.18064186 196.61846924 313.11056519 C201.30946832 335.81801919 201.30946832 335.81801919 201.25 346.0625 C201.24806641 346.77462646 201.24613281 347.48675293 201.24414062 348.22045898 C201.00789065 354.01218464 199.09297067 358.0441085 195.1875 362.25 C181.97415978 372.34668012 160.25910375 371.84864201 144.3984375 370.3125 C139.36843106 369.48158448 137.06666228 368.52638797 133.625 364.625 C129.45004277 355.81120141 128.14789958 345.78909638 126.5 336.25 C126.24686006 334.8331962 125.9929564 333.41652864 125.73828125 332 C124.34453469 324.17121173 123.12354691 316.34669837 122.12011719 308.45703125 C121.446801 304.60571576 120.39522782 302.39522782 117.625 299.625 C103.72547933 290.84485011 86.52138578 294.40974237 71.3671875 297.65234375 C57.80447719 300.53399351 40.99548743 302.11879934 28.4765625 294.90625 C24.0042951 291.81151644 20.4192622 289.05551997 19.13232422 283.49707031 C18.28320651 278.23060828 17.90368961 272.94854028 17.625 267.625 C15.57861863 269.53160123 14.60521746 270.67225828 13.5 273.3125 C11.625 275.625 11.625 275.625 9.43359375 275.9453125 C7.14468443 275.93814846 4.90325054 275.8399293 2.625 275.625 C2.34785156 274.98304688 2.07070313 274.34109375 1.78515625 273.6796875 C0.08232905 270.66390599 -2.10445115 270.69536144 -5.375 269.625 C-12.5313813 265.64315113 -18.45175767 260.21646269 -24.375 254.625 C-25.44041016 253.65626953 -25.44041016 253.65626953 -26.52734375 252.66796875 C-31.08282174 248.39196794 -31.08282174 248.39196794 -32.375 245 C-32.375 242.41074979 -32.01916105 240.13007073 -31.375 237.625 C-28.61554843 240.36891995 -25.87985365 243.13114617 -23.17578125 245.9296875 C-12.4307793 257.93406578 -12.4307793 257.93406578 1.625 264.625 C2.96341672 264.31270276 4.29639075 263.97669068 5.625 263.625 C6.594375 263.7075 7.56375 263.79 8.5625 263.875 C12.74826272 263.53330508 13.95597643 261.73886083 16.625 258.625 C17.285 257.965 17.945 257.305 18.625 256.625 C19.21336622 253.86829995 19.21336622 253.86829995 19.5546875 250.61328125 C19.7079248 249.38746338 19.86116211 248.16164551 20.01904297 246.89868164 C20.17775879 245.5914917 20.33647461 244.28430176 20.5 242.9375 C24.56009165 211.40776628 35.67450542 187.88187285 61.11230469 168.16723633 C89.68222375 146.96144702 129.20360201 129.8734811 165.36572266 135.01464844 C171.87135081 136.15836664 178.35340895 137.53446965 184.625 139.625 C194.70521588 111.31795195 202.13015866 82.1777842 188.93945312 53.51025391 C185.05797607 45.48059011 180.30852749 38.50771148 174.625 31.625 C174.00109375 30.83738281 173.3771875 30.04976562 172.734375 29.23828125 C156.8474546 10.11390018 131.8665948 -0.99932815 107.625 -4.375 C86.74286616 -6.04204568 66.67311498 -2.96567736 49.609375 9.8984375 C47.15724599 12.04955666 44.86802472 14.25807487 42.625 16.625 C42.02042969 17.25664063 41.41585937 17.88828125 40.79296875 18.5390625 C37.69044116 21.96618543 35.49835608 25.35791115 33.625 29.625 C34.3984375 30.49125 34.3984375 30.49125 35.1875 31.375 C36.625 33.625 36.625 33.625 36.3125 35.875 C35.9721875 36.74125 35.9721875 36.74125 35.625 37.625 C33.9234375 37.3465625 33.9234375 37.3465625 32.1875 37.0625 C31.011875 36.918125 29.83625 36.77375 28.625 36.625 C28.295 36.955 27.965 37.285 27.625 37.625 C25.62541636 37.66580783 23.62454746 37.66754356 21.625 37.625 C21.295 36.635 20.965 35.645 20.625 34.625 C20.068125 34.975625 19.51125 35.32625 18.9375 35.6875 C16.07456002 36.84815134 14.57385713 36.32431438 11.625 35.625 C11.53863281 35.01914063 11.45226562 34.41328125 11.36328125 33.7890625 C9.13072465 20.47565157 2.22877119 10.72564073 -8.25 2.3125 C-28.72322966 -12.03903129 -56.61196328 -12.39013379 -80.375 -8.375 C-102.82822121 -3.84544046 -124.31441758 5.08816975 -141.375 20.625 C-142.54095703 21.65173828 -142.54095703 21.65173828 -143.73046875 22.69921875 C-157.95374277 35.94326564 -168.51545847 56.93703045 -169.51855469 76.41210938 C-169.83408726 86.24048052 -170.073586 95.85264119 -167.78320312 105.46606445 C-167.16458298 108.73786947 -167.52787407 111.43198687 -168.375 114.625 C-169.92578125 116.31640625 -169.92578125 116.31640625 -171.375 117.625 C-180.37499296 96.35228936 -178.2943902 70.46464171 -170.0625 49.3125 C-157.5046255 21.3252858 -134.77062306 2.23845716 -106.5 -8.625 C-73.78723485 -20.57690059 -28.03301532 -24.22762862 0 0 Z "
		fill="#996845" transform="translate(259.375,63.375)" />
	<path
		d="M0 0 C20.00005633 -1.31268069 39.28360861 2.92212154 58.7869873 6.81951904 C63.4394965 7.7480404 68.09720732 8.65014587 72.75537109 9.54980469 C73.56119629 9.70586182 74.36702148 9.86191895 75.19726562 10.02270508 C89.33823903 12.70738032 103.51818048 13.63822319 117.88037109 14.23730469 C109.06267196 30.76319114 85.55013037 36.33112767 68.91674805 42.76123047 C53.52574889 47.91415765 53.52574889 47.91415765 40.88037109 57.23730469 C39.06373699 65.31514308 42.22068167 74.79294655 43.87384033 82.72286987 C48.56483942 105.43032388 48.56483942 105.43032388 48.50537109 115.67480469 C48.5034375 116.38693115 48.50150391 117.09905762 48.49951172 117.83276367 C48.26326175 123.62448933 46.34834177 127.65641319 42.44287109 131.86230469 C29.22953088 141.9589848 7.51447484 141.4609467 -8.34619141 139.92480469 C-13.37619785 139.09388917 -15.67796663 138.13869266 -19.11962891 134.23730469 C-23.29458613 125.4235061 -24.59672933 115.40140107 -26.24462891 105.86230469 C-26.49776885 104.44550089 -26.7516725 103.02883333 -27.00634766 101.61230469 C-28.40009422 93.78351642 -29.62108199 85.95900306 -30.62451172 78.06933594 C-31.29782791 74.21802044 -32.34940109 72.0075325 -35.11962891 69.23730469 C-49.01914957 60.4571548 -66.22324313 64.02204706 -81.37744141 67.26464844 C-95.12553502 70.18568633 -111.46495032 71.51525053 -124.26025391 64.58886719 C-127.79163266 62.02194062 -130.4564328 58.66616968 -133.11962891 55.23730469 C-132.03101563 54.41166016 -132.03101563 54.41166016 -130.92041016 53.56933594 C-128.07674494 51.20159795 -125.74272318 48.70665469 -123.30712891 45.92480469 C-104.23788524 24.81442497 -77.0081018 14.74810966 -50.11962891 7.23730469 C-49.38035156 7.02879883 -48.64107422 6.82029297 -47.87939453 6.60546875 C-32.26279816 2.33789195 -16.08229863 1.22335219 0 0 Z "
		fill="#F7E6BD" transform="translate(412.11962890625,293.7626953125)" />
	<path
		d="M0 0 C4.23248504 2.71959677 7.22619646 6.05260342 8.8984375 10.8671875 C9.47308394 14.19818888 9.76259219 17.49143161 9.8984375 20.8671875 C10.8884375 20.5371875 11.8784375 20.2071875 12.8984375 19.8671875 C21.47740281 19.06194166 29.05281679 20.26887618 35.8359375 25.8046875 C39.55720748 29.10368571 40.80891991 31.75716941 41.2109375 36.7421875 C41.0366756 43.00399851 37.87363745 47.24864173 33.8984375 51.8671875 C31.8402309 53.79851835 29.67757211 55.55924608 27.4609375 57.3046875 C26.90083984 57.77583984 26.34074219 58.24699219 25.76367188 58.73242188 C24.08984375 60.05078125 24.08984375 60.05078125 20.8984375 61.8671875 C17.49716434 60.8382338 14.52429063 59.17865342 11.45703125 57.40625 C-4.40057779 48.37703947 -16.95449934 43.66726969 -35.4140625 43.6171875 C-36.66123047 43.61323975 -37.90839844 43.60929199 -39.19335938 43.60522461 C-47.73311501 43.65884685 -55.65960491 44.42218704 -63.9765625 46.30859375 C-66.90763057 46.83252217 -68.42507389 47.10202202 -71.1015625 45.8671875 C-79.01384345 37.67889675 -80.70951286 24.70791233 -80.57397461 13.84326172 C-80.27001038 6.60940998 -78.73708329 2.64141991 -73.7265625 -2.6328125 C-67.28224482 -5.29942671 -60.0758645 -5.24561706 -53.3671875 -3.3671875 C-49.10619707 -1.56556068 -45.54870275 0.75364147 -42.1015625 3.8671875 C-39.66606907 2.78474598 -37.88575289 1.68135145 -35.8515625 -0.0703125 C-24.8008801 -8.3583243 -11.51624877 -6.20764339 0 0 Z "
		fill="#5CB53D" transform="translate(226.1015625,82.1328125)" />
	<path
		d="M0 0 C5.61668212 5.37049638 10.59734982 10.85541628 13.5 18.125 C14.29072311 20.11433871 14.29072311 20.11433871 15.625 21.625 C18.64787661 22.59400574 21.46643772 22.73298504 24.625 22.625 C24.625 23.615 24.625 24.605 24.625 25.625 C28.42537583 24.35820806 29.0322977 22.91048488 31.25 19.625 C42.80470739 3.37685045 59.10082027 -6.70737484 78.640625 -10.64453125 C100.50803049 -14.30843735 122.69934123 -10.78966089 142.625 -1.375 C143.25921875 -1.07577637 143.8934375 -0.77655273 144.546875 -0.46826172 C153.55303589 3.87045629 161.10892069 8.97381798 168.625 15.625 C169.30691406 16.16382813 169.98882812 16.70265625 170.69140625 17.2578125 C187.61761724 30.86717002 198.918275 52.45832206 202.625 73.625 C204.27732642 98.24124501 199.12041483 119.40564579 191.625 142.625 C189.645 142.295 187.665 141.965 185.625 141.625 C186.40402888 134.06948704 188.7936192 127.01913853 191.00976562 119.78125 C198.44785391 94.99810593 198.23217081 70.47094611 185.83203125 47.421875 C182.62343333 41.73995305 178.77941417 36.6559661 174.625 31.625 C174.00109375 30.83738281 173.3771875 30.04976562 172.734375 29.23828125 C156.8474546 10.11390018 131.8665948 -0.99932815 107.625 -4.375 C86.74286616 -6.04204568 66.67311498 -2.96567736 49.609375 9.8984375 C47.15724599 12.04955666 44.86802472 14.25807487 42.625 16.625 C42.02042969 17.25664063 41.41585937 17.88828125 40.79296875 18.5390625 C37.69044116 21.96618543 35.49835608 25.35791115 33.625 29.625 C34.3984375 30.49125 34.3984375 30.49125 35.1875 31.375 C36.625 33.625 36.625 33.625 36.3125 35.875 C35.9721875 36.74125 35.9721875 36.74125 35.625 37.625 C33.9234375 37.3465625 33.9234375 37.3465625 32.1875 37.0625 C31.011875 36.918125 29.83625 36.77375 28.625 36.625 C28.295 36.955 27.965 37.285 27.625 37.625 C25.62541636 37.66580783 23.62454746 37.66754356 21.625 37.625 C21.295 36.635 20.965 35.645 20.625 34.625 C20.068125 34.975625 19.51125 35.32625 18.9375 35.6875 C16.07456002 36.84815134 14.57385713 36.32431438 11.625 35.625 C11.53863281 35.01914063 11.45226562 34.41328125 11.36328125 33.7890625 C9.13072465 20.47565157 2.22877119 10.72564073 -8.25 2.3125 C-28.72322966 -12.03903129 -56.61196328 -12.39013379 -80.375 -8.375 C-102.82822121 -3.84544046 -124.31441758 5.08816975 -141.375 20.625 C-142.54095703 21.65173828 -142.54095703 21.65173828 -143.73046875 22.69921875 C-157.95374277 35.94326564 -168.51545847 56.93703045 -169.51855469 76.41210938 C-169.83408726 86.24048052 -170.073586 95.85264119 -167.78320312 105.46606445 C-167.16458298 108.73786947 -167.52787407 111.43198687 -168.375 114.625 C-169.92578125 116.31640625 -169.92578125 116.31640625 -171.375 117.625 C-180.37499296 96.35228936 -178.2943902 70.46464171 -170.0625 49.3125 C-157.5046255 21.3252858 -134.77062306 2.23845716 -106.5 -8.625 C-73.78723485 -20.57690059 -28.03301532 -24.22762862 0 0 Z "
		fill="#000000" transform="translate(259.375,63.375)" />
	<path
		d="M0 0 C1.02544922 -0.00773437 2.05089844 -0.01546875 3.10742188 -0.0234375 C18.51279875 0.01548954 30.95478065 3.87199242 43.3125 13.25 C43.3125 13.91 43.3125 14.57 43.3125 15.25 C42.22235596 15.23428955 41.13221191 15.2185791 40.0090332 15.20239258 C13.64271518 14.85657073 -11.66361267 15.98321023 -37.7824707 19.86962891 C-40.6875 20.25 -40.6875 20.25 -43.6875 20.25 C-42.1889129 15.90212558 -38.92373758 14.10827823 -35.1875 11.8125 C-34.56037109 11.41925537 -33.93324219 11.02601074 -33.28710938 10.62084961 C-28.25469983 7.50643579 -23.13867098 4.57421502 -17.6875 2.25 C-16.84574219 1.88261719 -16.00398438 1.51523437 -15.13671875 1.13671875 C-10.08769548 -0.16127477 -5.19122518 -0.0384298 0 0 Z "
		fill="#744827" transform="translate(406.6875,279.75)" />
	<path
		d="M0 0 C3.7874821 2.14512261 6.42430587 4.93184425 8 9 C8.86439383 16.59862485 8.78656375 23.75130263 4 30 C-0.23970681 33.93687061 -3.08965983 35.42895421 -8.96875 35.34375 C-12.48317913 34.74900046 -13.90991117 32.74697389 -16 30 C-19.67119986 24.42990366 -19.80878124 19.28178301 -18.6015625 12.890625 C-16.00056139 4.1755823 -9.15453007 -1.77184453 0 0 Z "
		fill="#FCF9F7" transform="translate(233,225)" />
	<path
		d="M0 0 C4.11025675 1.03165807 6.85281299 3.74112386 9.10546875 7.30078125 C11.22152851 12.72137269 10.88083537 20.04644359 8.7109375 25.4296875 C3.80709135 34.01141827 3.80709135 34.01141827 -1.0390625 35.4921875 C-8.04446791 36.27056588 -8.04446791 36.27056588 -11.9140625 33.2421875 C-16.97213574 26.69644566 -16.78035382 20.60932744 -16.0390625 12.4921875 C-13.86376303 5.22470973 -7.76321583 -0.50565007 0 0 Z "
		fill="#FBFAF9" transform="translate(183.0390625,217.5078125)" />
	<path
		d="M0 0 C4.41081775 1.34107464 6.07634732 4.71125888 8.328125 8.5703125 C9.98852374 12.4784126 9.76679931 16.51931495 9.22265625 20.67578125 C7.22608498 24.53122923 5.82557987 26.27383217 2.22265625 28.67578125 C-2.26071342 29.26792441 -4.20349361 29.05099096 -8.02734375 26.55078125 C-12.01319668 22.38375319 -13.91158634 19.0001721 -14.21484375 13.23828125 C-14.0515594 8.40506459 -12.57124082 5.58723715 -9.77734375 1.67578125 C-6.04589847 -0.81184893 -4.30061036 -0.58040758 0 0 Z "
		fill="#F6F4F2" transform="translate(435.77734375,226.32421875)" />
	<path
		d="M0 0 C3.55642497 2.15106349 6.20414788 4.75431843 8.4375 8.25 C9.63519959 14.10542021 9.97791232 19.11161759 7.1875 24.5 C4.4034171 27.68180902 2.86798132 28.90355763 -1.375 29.375 C-5.75886798 28.92149642 -7.05816098 28.25987567 -10 25 C-13.06773781 19.80690136 -14.80609157 15.10326473 -14 9 C-11.23724192 1.816829 -7.89303623 -1.20402248 0 0 Z "
		fill="#F6F4F2" transform="translate(374,228)" />
	<path
		d="M0 0 C2.75945157 2.74391995 5.49514635 5.50614617 8.19921875 8.3046875 C18.9442207 20.30906578 18.9442207 20.30906578 33 27 C34.33841672 26.68770276 35.67139075 26.35169068 37 26 C37.969375 26.0825 38.93875 26.165 39.9375 26.25 C44.12226964 25.90838615 45.28883394 24.07753985 48 21 C48.99 20.34 49.98 19.68 51 19 C51.29943155 22.05420181 51.4212594 24.95357531 51 28 C48.6875 30.75 48.6875 30.75 46 33 C45.38125 34.3921875 45.38125 34.3921875 44.75 35.8125 C43 38 43 38 40.81640625 38.3125 C38.5235323 38.3125 36.28207752 38.21529033 34 38 C33.72285156 37.35804688 33.44570313 36.71609375 33.16015625 36.0546875 C31.45732905 33.03890599 29.27054885 33.07036144 26 32 C18.8436187 28.01815113 12.92324233 22.59146269 7 17 C5.93458984 16.03126953 5.93458984 16.03126953 4.84765625 15.04296875 C0.29217826 10.76696794 0.29217826 10.76696794 -1 7.375 C-1 4.78574979 -0.64416105 2.50507073 0 0 Z "
		fill="#000000" transform="translate(228,301)" />
	<path
		d="M0 0 C4.41653692 -0.08834886 8.83284148 -0.14083987 13.25 -0.1875 C15.10238281 -0.22520508 15.10238281 -0.22520508 16.9921875 -0.26367188 C27.84354016 -0.34934045 43.2705749 0.84738277 51.77734375 8.625 C52.18082031 9.07875 52.58429688 9.5325 53 10 C52.67 10.66 52.34 11.32 52 12 C45.66564819 12.06136616 39.33435834 12.06376048 33 12 C32.28102539 11.99419922 31.56205078 11.98839844 30.82128906 11.98242188 C19.41578777 11.81543064 9.0287182 9.27313411 0 2 C0 1.34 0 0.68 0 0 Z "
		fill="#FD8E2F" transform="translate(176,125)" />
	<path
		d="M0 0 C3.93406826 0.02046329 6.37424603 0.20352971 9.4375 2.75 C12.20690429 5.81092053 12.7254757 6.60628537 13.1875 10.6875 C12.72036625 15.28098187 11.29209782 16.48947985 7.8125 19.375 C7.4825 19.705 7.1525 20.035 6.8125 20.375 C1.79093078 20.97382427 -3.5225499 21.48976279 -7.8125 18.4375 C-10.48322744 14.99366724 -11.2678653 12.8229036 -11.50390625 8.53125 C-10.98520832 4.99641967 -8.92589975 3.46139981 -6.1875 1.375 C-4.47710219 -0.33539781 -2.33656044 0.08198458 0 0 Z "
		fill="#E1614B" transform="translate(202.1875,249.625)" />
	<path
		d="M0 0 C2.8377012 1.61762677 3.90577563 3.23772458 5.1171875 6.234375 C4.9296875 9.296875 4.9296875 9.296875 2.7421875 12.046875 C-2.09845969 15.91939276 -5.44505747 16.75976914 -11.58984375 16.60546875 C-15.37407931 16.13467409 -17.38815634 14.97903116 -20.0703125 12.296875 C-21.3828125 8.921875 -21.3828125 8.921875 -21.0703125 5.296875 C-16.54731137 -2.08530899 -7.64072562 -2.59496342 0 0 Z "
		fill="#DE604A" transform="translate(411.0703125,246.703125)" />
	<path
		d="M0 0 C0.94875 0.33 1.8975 0.66 2.875 1 C10.91800935 3.57376299 19.39288477 3.18306416 27.75 3.1875 C28.94882813 3.19974609 30.14765625 3.21199219 31.3828125 3.22460938 C38.20067083 3.23570134 44.60080879 2.77475832 51.29003906 1.4309082 C54.23237614 0.9630501 57.02558749 0.93085939 60 1 C60.495 2.98 60.495 2.98 61 5 C59.12577848 5.48220263 57.25058246 5.96061833 55.375 6.4375 C54.33085937 6.70433594 53.28671875 6.97117188 52.2109375 7.24609375 C44.51859537 9.05220328 37.02557487 9.25269023 29.16235352 9.29516602 C27.69155205 9.30662513 26.22079016 9.32697979 24.75024414 9.35668945 C15.82288615 9.53646188 8.26145596 9.01666708 -0.26342773 5.96166992 C-2.83963146 5.05635576 -5.31390385 4.4672404 -8 4 C-8 2.68 -8 1.36 -8 0 C-5.07921949 -1.46039026 -3.15941809 -0.66833844 0 0 Z "
		fill="#FF8F31" transform="translate(85,249)" />
	<path
		d="M0 0 C7.00138834 0.4678347 13.67389784 1.70297872 20.5078125 3.28125 C33.22887858 5.89945599 46.50514686 6.81333062 58.6796875 1.77734375 C61 1 61 1 64 2 C64 3.32 64 4.64 64 6 C62.25093469 6.64836042 60.50070781 7.29358784 58.75 7.9375 C57.77546875 8.29714844 56.8009375 8.65679687 55.796875 9.02734375 C38.44290484 15.06245348 15.74408237 10.16735564 -1 4 C-0.67 2.68 -0.34 1.36 0 0 Z "
		fill="#FF8F31" transform="translate(196,159)" />
	<path
		d="M0 0 C2.34431933 1.8149569 2.87122538 3.15330687 3.3125 6.0546875 C3.53278493 10.14372656 3.12748751 12.71442797 1.4375 16.5 C-1 19 -1 19 -4.5 20.125 C-8 20 -8 20 -10.375 18.25 C-13.26044251 14.25477191 -13.40860606 10.82155153 -13 6 C-9.33570591 -0.59572936 -7.39533659 -1.68665571 0 0 Z "
		fill="#070707" transform="translate(234,233)" />
	<path
		d="M0 0 C3.5 0.875 3.5 0.875 5.4375 2.375 C7.07852899 6.23624468 7.128097 9.7495447 6.5 13.875 C4.9375 17.375 4.9375 17.375 2.5 19.875 C-1 21 -1 21 -4.5 20.875 C-7.44572605 18.70446501 -8.34060941 17.35317177 -9.5 13.875 C-9.87066773 8.87098565 -9.59881835 5.89198676 -6.5 1.875 C-3.5 -0.125 -3.5 -0.125 0 0 Z "
		fill="#060606" transform="translate(182.5,225.125)" />
	<path
		d="M0 0 C0.515625 0.2475 1.03125 0.495 1.5625 0.75 C1.5 2.5 1.5 2.5 0.5625 4.75 C-13.59959645 14.38022559 -29.63893197 10.39403334 -45.4375 7.75 C-45.1075 6.1 -44.7775 4.45 -44.4375 2.75 C-43.86281982 2.81856201 -43.28813965 2.88712402 -42.69604492 2.95776367 C-35.70889031 3.73057798 -28.77700098 3.999421 -21.75 4.0625 C-20.66138672 4.09150391 -19.57277344 4.12050781 -18.45117188 4.15039062 C-12.00899478 4.20130145 -5.21837652 -0.53521811 0 0 Z "
		fill="#FF8F32" transform="translate(179.4375,298.25)" />
	<path
		d="M0 0 C0.78375 0.04125 1.5675 0.0825 2.375 0.125 C3.77748912 2.92997823 3.54479056 5.31001365 3.5625 8.4375 C3.57667969 9.56800781 3.59085938 10.69851562 3.60546875 11.86328125 C3.37980137 15.05704843 2.73842654 17.2526429 1.375 20.125 C-0.10468324 19.98450482 -1.58374516 19.83745174 -3.0625 19.6875 C-3.88621094 19.60628906 -4.70992187 19.52507812 -5.55859375 19.44140625 C-7.625 19.125 -7.625 19.125 -8.625 18.125 C-9.18508793 11.73999764 -8.09651317 7.5223161 -4.625 2.125 C-2.625 0.125 -2.625 0.125 0 0 Z "
		fill="#2F8410" transform="translate(205.625,105.875)" />
	<path
		d="M0 0 C0.7125293 0.0714624 1.42505859 0.1429248 2.15917969 0.21655273 C9.87751917 0.93271957 17.50205896 1.12195882 25.25 1.0625 C26.38824219 1.05798828 27.52648437 1.05347656 28.69921875 1.04882812 C31.46620409 1.03720214 34.23307158 1.02086431 37 1 C36.67 2.65 36.34 4.3 36 6 C31.01561527 7.44962161 26.02642429 7.1842396 20.875 7.1875 C19.38226563 7.20586914 19.38226563 7.20586914 17.859375 7.22460938 C11.33754461 7.23738058 5.33723388 6.54278866 -1 5 C-0.67 3.35 -0.34 1.7 0 0 Z "
		fill="#FF8F31" transform="translate(129,354)" />
	<path
		d="M0 0 C6.32491289 0.47735192 6.32491289 0.47735192 8.9375 2.5 C10.55545293 6.30694807 10.58290293 9.9271526 10 14 C8.5 16.5625 8.5 16.5625 7 18 C3.6875 17.875 3.6875 17.875 0 17 C-3.09147496 12.81155005 -3.56852318 9.11670865 -3 4 C-1.5 1.5625 -1.5 1.5625 0 0 Z "
		fill="#070707" transform="translate(430,232)" />
	<path
		d="M0 0 C6.32491289 0.47735192 6.32491289 0.47735192 8.9375 2.5 C10.5646633 6.32861952 10.67422304 9.90971355 10 14 C8.3125 16.625 8.3125 16.625 6 18 C3.05265186 17.92811346 1.56501851 17.44394312 -0.75 15.625 C-3.50477625 12.04379088 -3.30418902 8.33469348 -3 4 C-1.5 1.5625 -1.5 1.5625 0 0 Z "
		fill="#060606" transform="translate(368,234)" />
	<path
		d="M0 0 C2.21535776 1.10767888 4.35660222 2.21654867 6.4765625 3.50390625 C11.20642896 5.51226418 15.66123851 5.76997013 20.75 6.125 C22.64088704 6.27006132 24.53153099 6.41833844 26.421875 6.5703125 C27.25299805 6.62977051 28.08412109 6.68922852 28.94042969 6.75048828 C31 7 31 7 33 8 C32.67 9.32 32.34 10.64 32 12 C9.14012456 12.47241993 9.14012456 12.47241993 -1 6 C-1.042721 4.33388095 -1.04063832 2.66617115 -1 1 C-0.67 0.67 -0.34 0.34 0 0 Z "
		fill="#FF8F30" transform="translate(89,184)" />
	<path
		d="M0 0 C0.556875 0.2475 1.11375 0.495 1.6875 0.75 C1.30449081 3.25304599 0.93737347 4.50074965 -0.87890625 6.3125 C-5.5037024 9.64307727 -10.12006601 12.4021168 -15.3125 14.75 C-16.5190625 15.36875 -16.5190625 15.36875 -17.75 16 C-21.58470701 17.12235327 -25.34552212 16.90556776 -29.3125 16.75 C-28.9825 15.1 -28.6525 13.45 -28.3125 11.75 C-27.55066406 11.59144531 -26.78882813 11.43289063 -26.00390625 11.26953125 C-17.73446007 9.40090483 -11.01606461 6.87745456 -4.5 1.375 C-2.3125 -0.25 -2.3125 -0.25 0 0 Z "
		fill="#FF8F31" transform="translate(222.3125,403.25)" />
	<path
		d="M0 0 C3.26971425 0.3892517 6.23150326 1.07288066 9.375 2.0625 C15.42826648 3.62799995 20.19530464 3.51013853 26 1 C28.8125 0.875 28.8125 0.875 31 1 C31.495 2.98 31.495 2.98 32 5 C22.62678236 9.55444848 14.8671125 10.50745453 4.875 7.25 C2.1171875 6.265625 2.1171875 6.265625 0 5 C-0.8671875 2.921875 -0.8671875 2.921875 -1 1 C-0.67 0.67 -0.34 0.34 0 0 Z "
		fill="#FF8F31" transform="translate(230,195)" />
	<path
		d="M0 0 C0.66 0.33 1.32 0.66 2 1 C2.31523361 5.01922848 2.38044558 7.35183346 0.3125 10.875 C-2 13 -2 13 -4.25 14.125 C-8.57658406 13.92833709 -11.55185241 11.47274108 -15 9 C-11.78189928 2.56379857 -7.3378538 -0.83384702 0 0 Z "
		fill="#308511" transform="translate(240,123)" />
	<path
		d="M0 0 C3.66082033 0.71780791 4.03120171 1.17354095 6.0625 4.125 C8.49559075 8.47813361 8.62576024 11.71648526 8.1875 16.625 C5.95703125 17.37890625 5.95703125 17.37890625 3.1875 17.625 C0.94921875 15.96484375 0.94921875 15.96484375 -1.125 13.5625 C-1.82238281 12.78777344 -2.51976562 12.01304687 -3.23828125 11.21484375 C-5.14698723 8.07471456 -5.26882464 6.24049524 -4.8125 2.625 C-2.8125 0.625 -2.8125 0.625 0 0 Z "
		fill="#734727" transform="translate(505.8125,253.375)" />
	<path
		d="M0 0 C3.61362123 1.22863122 4.68841125 2.6268225 6.37890625 6.0078125 C7.59281602 9.35083104 7.87647897 12.52107535 8.125 16.0625 C4.165 16.5575 4.165 16.5575 0.125 17.0625 C-3.57638266 12.40592182 -5.23793003 8.11133379 -4.875 2.0625 C-2.875 0.0625 -2.875 0.0625 0 0 Z "
		fill="#2E8410" transform="translate(166.875,108.9375)" />
	<path
		d="M0 0 C1.85546875 1.35546875 1.85546875 1.35546875 3 3 C2.6875 5.6875 2.6875 5.6875 2 8 C-1.50711619 9.16903873 -4.36782386 9.16839619 -8.0625 9.1875 C-9.31160156 9.20167969 -10.56070312 9.21585938 -11.84765625 9.23046875 C-15 9 -15 9 -17 7 C-16.9375 5.0625 -16.9375 5.0625 -16 3 C-11.68873829 -1.02384426 -5.56708212 -0.87901297 0 0 Z "
		fill="#744828" transform="translate(398,207)" />
	<path
		d="M0 0 C3.46614294 0.18735908 4.73890622 0.7314464 7.1875 3.25 C10.73304518 8.62944786 11.25720318 11.58826376 10 18 C8.35 18.33 6.7 18.66 5 19 C4.74605469 18.40832031 4.49210938 17.81664062 4.23046875 17.20703125 C2.70699822 13.70932549 1.25873114 10.40147936 -0.8125 7.1875 C-2 5 -2 5 -1.75 2.75 C-1 1 -1 1 0 0 Z "
		fill="#744828" transform="translate(518,281)" />
	<path
		d="M0 0 C0.70125 0.226875 1.4025 0.45375 2.125 0.6875 C1.75601782 3.1113312 1.53258456 4.34907334 -0.38867188 5.94433594 C-5.85616248 8.67808124 -10.31423833 9.19414463 -16.375 8.9375 C-17.60863281 8.91042969 -17.60863281 8.91042969 -18.8671875 8.8828125 C-20.87030804 8.8362283 -22.87281821 8.76450699 -24.875 8.6875 C-25.535 7.3675 -26.195 6.0475 -26.875 4.6875 C-24.6346977 2.4471977 -18.58121875 3.33383344 -15.39648438 3.2578125 C-9.91204253 3.02949228 -5.03002863 -0.54674224 0 0 Z "
		fill="#FF8F31" transform="translate(226.875,367.3125)" />
	<path
		d="M0 0 C0.99 0.33 1.98 0.66 3 1 C-3.07313894 5.23254444 -9.24699623 8.895653 -15.875 12.1875 C-16.79812988 12.64874268 -17.72125977 13.10998535 -18.67236328 13.58520508 C-30.50047428 19.37798674 -42.74567661 24.19352897 -55 29 C-55.66 28.34 -56.32 27.68 -57 27 C-56.29907227 26.71157227 -55.59814453 26.42314453 -54.87597656 26.12597656 C-46.78452132 22.77769692 -38.74949976 19.31212355 -30.75 15.75 C-30.11813782 15.4695282 -29.48627563 15.1890564 -28.83526611 14.90008545 C-20.46764413 11.17435209 -12.2814838 7.27965587 -4.47949219 2.45214844 C-3.02528842 1.56730665 -1.51651071 0.77320687 0 0 Z "
		fill="#EACD9A" transform="translate(509,309)" />
	<path
		d="M0 0 C0.78375 0.04125 1.5675 0.0825 2.375 0.125 C3.05078125 1.7734375 3.05078125 1.7734375 3.375 4.125 C2.23046875 6.8515625 2.23046875 6.8515625 0.5625 9.75 C0.01980469 10.71164062 -0.52289063 11.67328125 -1.08203125 12.6640625 C-2.625 15.125 -2.625 15.125 -4.625 17.125 C-6.75 16.75 -6.75 16.75 -8.625 16.125 C-9.0476988 9.99586741 -8.63463916 7.07808367 -4.625 2.125 C-2.625 0.125 -2.625 0.125 0 0 Z "
		fill="#744828" transform="translate(295.625,295.875)" />
	<path
		d="M0 0 C2.12493141 -0.02693575 4.24995912 -0.04636628 6.375 -0.0625 C7.55835938 -0.07410156 8.74171875 -0.08570313 9.9609375 -0.09765625 C13 0 13 0 15 1 C15 2.98 15 4.96 15 7 C12.56045342 8.21977329 10.84694151 8.20153813 8.125 8.25 C6.82949219 8.28867187 6.82949219 8.28867187 5.5078125 8.328125 C2.54975351 7.94108924 1.20798216 6.95124005 -1 5 C-0.67 3.35 -0.34 1.7 0 0 Z "
		fill="#080502" transform="translate(196,277)" />
	<path
		d="M0 0 C1.0725 0.103125 2.145 0.20625 3.25 0.3125 C2.82029435 5.6838206 1.8466894 9.21627041 -1.75 13.3125 C-4.4375 13.75 -4.4375 13.75 -6.75 13.3125 C-7.75 12.3125 -7.75 12.3125 -8.0625 9.0625 C-7.75 5.3125 -7.75 5.3125 -6.1875 2.375 C-3.75 0.3125 -3.75 0.3125 0 0 Z "
		fill="#744828" transform="translate(307.75,265.6875)" />
	<path
		d="M0 0 C3 1 3 1 4.5625 3.1875 C11.99214978 11.76017282 24.50295722 15.58380265 35 19 C35 19.66 35 20.32 35 21 C22.33293962 18.6777056 10.2974381 13.7472551 1.375 4.1875 C0 2 0 2 0 0 Z "
		fill="#EACD9B" transform="translate(318,325)" />
	<path
		d="M0 0 C2 1 2 1 2.7890625 3.1171875 C3.06492187 4.02726562 3.34078125 4.93734375 3.625 5.875 C7.22917062 16.18025823 14.67297798 24.10786192 22 32 C21.67 32.99 21.34 33.98 21 35 C12.21488742 26.97881025 0.76128231 14.32570833 -0.25 1.9375 C-0.1675 1.298125 -0.085 0.65875 0 0 Z "
		fill="#EACD9A" transform="translate(376,302)" />
	<path
		d="M0 0 C-1.08735551 3.26206653 -1.60916315 3.70492259 -4.1875 5.75 C-9.25185593 10.01472078 -13.62846775 14.86719129 -18.07495117 19.75683594 C-23.84724466 26.06206782 -23.84724466 26.06206782 -27 28 C-27.66 28 -28.32 28 -29 28 C-27.91264449 24.73793347 -27.39083685 24.29507741 -24.8125 22.25 C-19.74814407 17.98527922 -15.37153225 13.13280871 -10.92504883 8.24316406 C-3.37862339 0 -3.37862339 0 0 0 Z "
		fill="#EACD9A" transform="translate(480,305)" />
	<path
		d="M0 0 C0.66 0 1.32 0 2 0 C3.06862699 26.18136137 3.06862699 26.18136137 -3.63671875 33.87890625 C-4.08660156 34.24886719 -4.53648437 34.61882812 -5 35 C-4.56306016 30.98015351 -3.85374377 27.49779345 -2.5 23.6875 C-0.06967342 16.06457322 -0.25061135 7.9331455 0 0 Z "
		fill="#EACE9B" transform="translate(431,304)" />
	<path
		d="M0 0 C0.66 0 1.32 0 2 0 C2.29995685 7.86442418 1.40106313 15.31109527 0.125 23.0625 C-0.04902344 24.20138672 -0.22304688 25.34027344 -0.40234375 26.51367188 C-0.57636719 27.59326172 -0.75039063 28.67285156 -0.9296875 29.78515625 C-1.08679199 30.76363525 -1.24389648 31.74211426 -1.40576172 32.75024414 C-1.60186035 33.49266357 -1.79795898 34.23508301 -2 35 C-2.99 35.495 -2.99 35.495 -4 36 C-4.37157715 28.94003421 -3.21159936 22.71867152 -1.734375 15.8203125 C-0.72465963 10.56764426 -0.2881224 5.33523194 0 0 Z "
		fill="#EACD9A" transform="translate(420,298)" />
	<path
		d="M0 0 C0.66 0 1.32 0 2 0 C2.4125 0.89460938 2.825 1.78921875 3.25 2.7109375 C7.6094318 11.92426186 12.6274665 19.83225909 20 27 C19.67 27.66 19.34 28.32 19 29 C10.24972386 22.670013 4.38022408 12.7584739 0 3 C0 2.01 0 1.02 0 0 Z "
		fill="#EACD9A" transform="translate(363,310)" />
	<path
		d="M0 0 C0.66 0 1.32 0 2 0 C2.02578125 0.78761719 2.0515625 1.57523437 2.078125 2.38671875 C2.4653861 9.82389221 3.74064285 16.2770315 6.16015625 23.3203125 C7 26 7 26 7 29 C6.34 29 5.68 29 5 29 C0.4581502 19.29695724 -0.29745252 10.69176549 0 0 Z "
		fill="#EACD9B" transform="translate(397,300)" />
	<path
		d="M0 0 C2 1 2 1 3.125 3.125 C6.61228049 8.47216342 11.78593663 12.21988316 17 15.8125 C17.99 16.534375 18.98 17.25625 20 18 C20 18.66 20 19.32 20 20 C12.38415779 16.48775277 4.64797581 11.05210124 0 4 C0 2.68 0 1.36 0 0 Z "
		fill="#EACD9A" transform="translate(342,314)" />
	<path
		d="M0 0 C0.66 0.66 1.32 1.32 2 2 C0.7550659 4.54425853 -0.49573888 7.08534361 -1.75 9.625 C-2.27207031 10.69427734 -2.27207031 10.69427734 -2.8046875 11.78515625 C-4.9334707 16.08214456 -7.11599953 20.15870526 -10 24 C-10.66 24 -11.32 24 -12 24 C-10.36971726 19.59314198 -8.23570155 15.55653709 -6 11.4375 C-2.92287749 5.75887621 -2.92287749 5.75887621 0 0 Z "
		fill="#EACD9A" transform="translate(455,304)" />
	<path
		d="M0 0 C0.67804688 0.40992188 1.35609375 0.81984375 2.0546875 1.2421875 C8.31505792 4.86661248 13.81319387 7.09580313 21 8 C21 8.66 21 9.32 21 10 C13.8181454 10.6245091 7.76672062 8.37258633 1.69921875 4.55078125 C1.13847656 4.03902344 0.57773437 3.52726562 0 3 C0 2.01 0 1.02 0 0 Z "
		fill="#EACE9B" transform="translate(306,339)" />
</svg>